_Griffith_Gothic-Light_Italic_WebTT.ufo
<glyph name="exclam" format="1">
  <advance width="495.616"/>
  <unicode hex="0021"/>
  <outline>
    <contour>
      <point x="139" y="184" type="qcurve" smooth="yes"/>
      <point x="183.776119403" y="184.0"/>
      <point x="240.0" y="128.537313433"/>
      <point x="240" y="86" type="qcurve" smooth="yes"/>
      <point x="240.0" y="43.4626865672"/>
      <point x="183.776119403" y="-14.0"/>
      <point x="139" y="-14" type="qcurve" smooth="yes"/>
      <point x="96.4626865672" y="-14.0"/>
      <point x="41.0" y="43.4626865672"/>
      <point x="41" y="86" type="qcurve" smooth="yes"/>
      <point x="41.0" y="128.537313433"/>
      <point x="96.4626865672" y="184.0"/>
    </contour>
    <contour>
      <point x="397" y="1475" type="line"/>
      <point x="569" y="1475" type="line"/>
      <point x="256" y="424" type="line"/>
      <point x="184" y="424" type="line"/>
    </contour>
  </outline>
</glyph>
<glyph name="quotedbl" format="1">
  <advance width="684.032"/>
  <unicode hex="0022"/>
  <outline>
    <contour>
      <point x="313" y="1475" type="line"/>
      <point x="463" y="1475" type="line"/>
      <point x="317" y="1034" type="line"/>
      <point x="238" y="1034" type="line"/>
    </contour>
    <contour>
      <point x="616" y="1475" type="line"/>
      <point x="768" y="1475" type="line"/>
      <point x="623" y="1034" type="line"/>
      <point x="543" y="1034" type="line"/>
    </contour>
  </outline>
</glyph>
<glyph name="numbersign" format="1">
  <advance width="1251.328"/>
  <unicode hex="0023"/>
  <outline>
    <contour>
      <point x="1079" y="1059" type="line"/>
      <point x="1313" y="1059" type="line"/>
      <point x="1286" y="948" type="line"/>
      <point x="1042" y="948" type="line"/>
      <point x="897" y="526" type="line"/>
      <point x="1151" y="526" type="line"/>
      <point x="1122" y="416" type="line"/>
      <point x="858" y="416" type="line"/>
      <point x="717" y="0" type="line"/>
      <point x="618" y="0" type="line"/>
      <point x="760" y="416" type="line"/>
      <point x="387" y="416" type="line"/>
      <point x="244" y="0" type="line"/>
      <point x="145" y="0" type="line"/>
      <point x="289" y="416" type="line"/>
      <point x="55" y="416" type="line"/>
      <point x="84" y="526" type="line"/>
      <point x="328" y="526" type="line"/>
      <point x="471" y="948" type="line"/>
      <point x="219" y="948" type="line"/>
      <point x="246" y="1059" type="line"/>
      <point x="512" y="1059" type="line"/>
      <point x="653" y="1475" type="line"/>
      <point x="752" y="1475" type="line"/>
      <point x="610" y="1059" type="line"/>
      <point x="981" y="1059" type="line"/>
      <point x="1124" y="1475" type="line"/>
      <point x="1223" y="1475" type="line"/>
    </contour>
    <contour>
      <point x="799" y="524" type="line"/>
      <point x="946" y="950" type="line"/>
      <point x="569" y="950" type="line"/>
      <point x="424" y="524" type="line"/>
    </contour>
  </outline>
</glyph>
<glyph name="ampersand" format="1">
  <advance width="1378.304"/>
  <unicode hex="0026"/>
  <outline>
    <contour>
      <point x="1237" y="797" type="qcurve"/>
      <point x="1337" y="739" type="line"/>
      <point x="1245.20895522" y="595.71641791"/>
      <point x="1047.73134328" y="339.76119403"/>
      <point x="944" y="242" type="qcurve"/>
      <point x="1005.19402985" y="144.23880597"/>
      <point x="1110.08955224" y="96.0"/>
      <point x="1178" y="96" type="qcurve" smooth="yes"/>
      <point x="1200.3880597" y="96.0"/>
      <point x="1241.88059701" y="99.5223880597"/>
      <point x="1268" y="104" type="qcurve"/>
      <point x="1239" y="-4" type="line"/>
      <point x="1212.88059701" y="-8.4776119403"/>
      <point x="1171.11940299" y="-12.0"/>
      <point x="1145" y="-12" type="qcurve" smooth="yes"/>
      <point x="1045.74626866" y="-12.0"/>
      <point x="910.179104478" y="57.2537313433"/>
      <point x="846" y="158" type="qcurve"/>
      <point x="740.776119403" y="73.671641791"/>
      <point x="529.701492537" y="-20.0"/>
      <point x="420" y="-20" type="qcurve" smooth="yes"/>
      <point x="258.059701493" y="-20.0"/>
      <point x="49.0" y="161.343283582"/>
      <point x="49" y="330" type="qcurve" smooth="yes"/>
      <point x="49.0" y="500.895522388"/>
      <point x="281.432835821" y="782.223880597"/>
      <point x="518" y="877" type="qcurve"/>
      <point x="494.865671642" y="944.164179104"/>
      <point x="473.0" y="1056.32835821"/>
      <point x="473" y="1122" type="qcurve" smooth="yes"/>
      <point x="473.0" y="1277.97014925"/>
      <point x="679.52238806" y="1499.0"/>
      <point x="834" y="1499" type="qcurve" smooth="yes"/>
      <point x="955.641791045" y="1499.0"/>
      <point x="1087.0" y="1363.73134328"/>
      <point x="1087" y="1260" type="qcurve" smooth="yes"/>
      <point x="1087.0" y="1117.46268657"/>
      <point x="866.507462687" y="913.134328358"/>
      <point x="668" y="840" type="qcurve"/>
      <point x="735.164179104" y="663.880597015"/>
      <point x="838.76119403" y="426.776119403"/>
      <point x="891" y="332" type="qcurve"/>
      <point x="982.791044776" y="423.791044776"/>
      <point x="1157.14925373" y="665.656716418"/>
    </contour>
    <contour>
      <point x="453" y="86" type="qcurve" smooth="yes"/>
      <point x="538.074626866" y="86.0"/>
      <point x="710.671641791" y="169.611940299"/>
      <point x="795" y="242" type="qcurve"/>
      <point x="738.28358209" y="345.731343284"/>
      <point x="623.149253731" y="607.417910448"/>
      <point x="553" y="791" type="qcurve"/>
      <point x="366.432835821" y="715.626865672"/>
      <point x="190.0" y="482.328358209"/>
      <point x="190" y="348" type="qcurve" smooth="yes"/>
      <point x="190.0" y="227.104477612"/>
      <point x="333.597014925" y="86.0"/>
    </contour>
    <contour>
      <point x="635" y="918" type="qcurve"/>
      <point x="805.895522388" y="983.671641791"/>
      <point x="969.0" y="1139.29850746"/>
      <point x="969" y="1249" type="qcurve" smooth="yes"/>
      <point x="969.0" y="1319.14925373"/>
      <point x="894.402985075" y="1405.0"/>
      <point x="825" y="1405" type="qcurve" smooth="yes"/>
      <point x="722.76119403" y="1405.0"/>
      <point x="602.0" y="1242.70149254"/>
      <point x="602" y="1133" type="qcurve" smooth="yes"/>
      <point x="602.0" y="1074.79104478"/>
      <point x="617.835820896" y="970.985074627"/>
    </contour>
  </outline>
</glyph>
<glyph name="quotesingle" format="1">
  <advance width="380.928"/>
  <unicode hex="0027"/>
  <outline>
    <contour>
      <point x="313" y="1475" type="line"/>
      <point x="465" y="1475" type="line"/>
      <point x="319" y="1034" type="line"/>
      <point x="238" y="1034" type="line"/>
    </contour>
  </outline>
</glyph>
<glyph name="parenright" format="1">
  <advance width="643.072"/>
  <unicode hex="0029"/>
  <outline>
    <contour>
      <point x="414" y="1505" type="line"/>
      <point x="485.641791045" y="1384.10447761"/>
      <point x="584.0" y="1071.89552239"/>
      <point x="584" y="901" type="qcurve" smooth="yes"/>
      <point x="584.0" y="565.179104478"/>
      <point x="254.746268657" y="-0.223880597015"/>
      <point x="4" y="-195" type="qcurve"/>
      <point x="-129" y="-195" type="line"/>
      <point x="141.149253731" y="26.6417910448"/>
      <point x="438.0" y="606.28358209"/>
      <point x="438" y="913" type="qcurve" smooth="yes"/>
      <point x="438.0" y="1083.14925373"/>
      <point x="374.641791045" y="1355.74626866"/>
      <point x="303" y="1505" type="qcurve"/>
    </contour>
  </outline>
</glyph>
<glyph name="asterisk" format="1">
  <advance width="901.12"/>
  <unicode hex="002A"/>
  <outline>
    <contour>
      <point x="913" y="1292" type="line"/>
      <point x="954" y="1167" type="line"/>
      <point x="633" y="1104" type="line"/>
      <point x="862" y="862" type="line"/>
      <point x="754" y="782" type="line"/>
      <point x="588" y="1077" type="line"/>
      <point x="422" y="782" type="line"/>
      <point x="313" y="862" type="line"/>
      <point x="541" y="1104" type="line"/>
      <point x="219" y="1167" type="line"/>
      <point x="260" y="1294" type="line"/>
      <point x="561" y="1149" type="line"/>
      <point x="520" y="1475" type="line"/>
      <point x="655" y="1475" type="line"/>
      <point x="612" y="1149" type="line"/>
    </contour>
  </outline>
</glyph>
<glyph name="plus" format="1">
  <advance width="1228.8"/>
  <unicode hex="002B"/>
  <outline>
    <contour>
      <point x="1186" y="786" type="line"/>
      <point x="1186" y="668" type="line"/>
      <point x="727" y="668" type="line"/>
      <point x="727" y="207" type="line"/>
      <point x="602" y="207" type="line"/>
      <point x="602" y="668" type="line"/>
      <point x="143" y="668" type="line"/>
      <point x="143" y="786" type="line"/>
      <point x="602" y="786" type="line"/>
      <point x="602" y="1247" type="line"/>
      <point x="727" y="1247" type="line"/>
      <point x="727" y="786" type="line"/>
    </contour>
  </outline>
</glyph>
<glyph name="comma" format="1">
  <advance width="380.928"/>
  <unicode hex="002C"/>
  <outline>
    <contour>
      <point x="53" y="197" type="line"/>
      <point x="217" y="197" type="line"/>
      <point x="-33" y="-244" type="line"/>
      <point x="-125" y="-244" type="line"/>
    </contour>
  </outline>
</glyph>
<glyph name="hyphen" format="1">
  <advance width="632.832"/>
  <unicode hex="002D"/>
  <unicode hex="2010"/>
  <unicode hex="2011"/>
  <outline>
    <contour>
      <point x="104" y="637" type="line"/>
      <point x="580" y="637" type="line"/>
      <point x="549" y="512" type="line"/>
      <point x="74" y="512" type="line"/>
    </contour>
  </outline>
</glyph>
<glyph name="period" format="1">
  <advance width="380.928"/>
  <unicode hex="002E"/>
  <outline>
    <contour>
      <point x="82" y="188" type="qcurve" smooth="yes"/>
      <point x="126.029850746" y="188.0"/>
      <point x="184.0" y="130.537313433"/>
      <point x="184" y="88" type="qcurve" smooth="yes"/>
      <point x="184.0" y="43.9701492537"/>
      <point x="126.029850746" y="-14.0"/>
      <point x="82" y="-14" type="qcurve" smooth="yes"/>
      <point x="39.4626865672" y="-14.0"/>
      <point x="-18.0" y="43.9701492537"/>
      <point x="-18" y="88" type="qcurve" smooth="yes"/>
      <point x="-18.0" y="130.537313433"/>
      <point x="39.4626865672" y="188.0"/>
    </contour>
  </outline>
</glyph>
<glyph name="one" format="1">
  <advance width="901.12"/>
  <unicode hex="0031"/>
  <outline>
    <contour>
      <point x="317" y="1475" type="line"/>
      <point x="791" y="1475" type="line"/>
      <point x="446" y="102" type="line"/>
      <point x="745" y="102" type="line"/>
      <point x="719" y="0" type="line"/>
      <point x="-27" y="0" type="line"/>
      <point x="0" y="102" type="line"/>
      <point x="305" y="102" type="line"/>
      <point x="623" y="1372" type="line"/>
      <point x="291" y="1372" type="line"/>
    </contour>
  </outline>
</glyph>
<glyph name="two" format="1">
  <advance width="1126.4"/>
  <unicode hex="0032"/>
  <outline>
    <contour>
      <point x="764" y="1499" type="qcurve" smooth="yes"/>
      <point x="936.388059701" y="1499.0"/>
      <point x="1130.0" y="1309.0"/>
      <point x="1130" y="1159" type="qcurve" smooth="yes"/>
      <point x="1130.0" y="972.432835821"/>
      <point x="881.940298507" y="715.910447761"/>
      <point x="670" y="598" type="qcurve" smooth="yes"/>
      <point x="464.776119403" y="484.567164179"/>
      <point x="229.731343284" y="240.850746269"/>
      <point x="176" y="111" type="qcurve"/>
      <point x="915" y="111" type="line"/>
      <point x="889" y="0" type="line"/>
      <point x="0" y="0" type="line"/>
      <point x="20" y="94" type="line"/>
      <point x="104.328358209" y="279.074626866"/>
      <point x="376.925373134" y="561.164179104"/>
      <point x="612" y="694" type="qcurve" smooth="yes"/>
      <point x="789.611940299" y="793.253731343"/>
      <point x="987.0" y="1001.47761194"/>
      <point x="987" y="1147" type="qcurve" smooth="yes"/>
      <point x="987.0" y="1252.2238806"/>
      <point x="864.402985075" y="1386.0"/>
      <point x="745" y="1386" type="qcurve" smooth="yes"/>
      <point x="636.791044776" y="1386.0"/>
      <point x="447.28358209" y="1263.3880597"/>
      <point x="354" y="1141" type="qcurve"/>
      <point x="254" y="1206" type="line"/>
      <point x="356.23880597" y="1342.56716418"/>
      <point x="603.552238806" y="1499.0"/>
    </contour>
  </outline>
</glyph>
<glyph name="three" format="1">
  <advance width="1054.72"/>
  <unicode hex="0033"/>
  <outline>
    <contour>
      <point x="725" y="1499" type="qcurve" smooth="yes"/>
      <point x="873.507462687" y="1499.0"/>
      <point x="1044.0" y="1351.86567164"/>
      <point x="1044" y="1225" type="qcurve" smooth="yes"/>
      <point x="1044.0" y="1083.95522388"/>
      <point x="833.447761194" y="896.373134328"/>
      <point x="623" y="821" type="qcurve"/>
      <point x="627" y="813" type="line"/>
      <point x="777.746268657" y="811.507462687"/>
      <point x="975.0" y="670.985074627"/>
      <point x="975" y="518" type="qcurve" smooth="yes"/>
      <point x="975.0" y="276.955223881"/>
      <point x="454.47761194" y="-8.0"/>
      <point x="100" y="-8" type="qcurve" smooth="yes"/>
      <point x="47.0149253731" y="-8.0"/>
      <point x="-32.7462686567" y="-4.4776119403"/>
      <point x="-82" y="0" type="qcurve"/>
      <point x="-61" y="109" type="line"/>
      <point x="-16.9701492537" y="103.776119403"/>
      <point x="47.4925373134" y="100.0"/>
      <point x="96" y="100" type="qcurve" smooth="yes"/>
      <point x="393.014925373" y="100.0"/>
      <point x="829.0" y="318.47761194"/>
      <point x="829" y="514" type="qcurve" smooth="yes"/>
      <point x="829.0" y="636.388059701"/>
      <point x="680.402985075" y="739.0"/>
      <point x="561" y="739" type="qcurve" smooth="yes"/>
      <point x="521.447761194" y="739.0"/>
      <point x="445.552238806" y="730.462686567"/>
      <point x="406" y="723" type="qcurve"/>
      <point x="393" y="821" type="line"/>
      <point x="684.791044776" y="906.820895522"/>
      <point x="901.0" y="1089.34328358"/>
      <point x="901" y="1208" type="qcurve" smooth="yes"/>
      <point x="901.0" y="1290.8358209"/>
      <point x="795.28358209" y="1389.0"/>
      <point x="702" y="1389" type="qcurve" smooth="yes"/>
      <point x="609.462686567" y="1389.0"/>
      <point x="425.253731343" y="1310.6119403"/>
      <point x="326" y="1233" type="qcurve"/>
      <point x="264" y="1315" type="line"/>
      <point x="369.970149254" y="1397.08955224"/>
      <point x="595.149253731" y="1499.0"/>
    </contour>
  </outline>
</glyph>
<glyph name="four" format="1">
  <advance width="1169.408"/>
  <unicode hex="0034"/>
  <outline>
    <contour>
      <point x="926" y="1475" type="line"/>
      <point x="1135" y="1475" type="line"/>
      <point x="895" y="512" type="line"/>
      <point x="1090" y="512" type="line"/>
      <point x="1065" y="416" type="line"/>
      <point x="872" y="416" type="line"/>
      <point x="768" y="0" type="line"/>
      <point x="631" y="0" type="line"/>
      <point x="735" y="416" type="line"/>
      <point x="51" y="416" type="line"/>
      <point x="88" y="559" type="line"/>
    </contour>
    <contour>
      <point x="758" y="512" type="line"/>
      <point x="969" y="1352" type="line"/>
      <point x="942" y="1352" type="line"/>
      <point x="195" y="539" type="line"/>
      <point x="186" y="512" type="line"/>
    </contour>
  </outline>
</glyph>
<glyph name="five" format="1">
  <advance width="1097.728"/>
  <unicode hex="0035"/>
  <outline>
    <contour>
      <point x="434" y="1475" type="line"/>
      <point x="1133" y="1475" type="line"/>
      <point x="1108" y="1358" type="line"/>
      <point x="516" y="1358" type="line"/>
      <point x="338" y="805" type="line"/>
      <point x="354" y="805" type="line"/>
      <point x="426.388059701" y="870.671641791"/>
      <point x="570.208955224" y="940.0"/>
      <point x="662" y="940" type="qcurve" smooth="yes"/>
      <point x="820.208955224" y="940.0"/>
      <point x="1014.0" y="747.119402985"/>
      <point x="1014" y="571" type="qcurve" smooth="yes"/>
      <point x="1014" y="565" type="line" smooth="yes"/>
      <point x="1014.0" y="311.268656716"/>
      <point x="662.940298507" y="-20.0"/>
      <point x="401" y="-20" type="qcurve" smooth="yes"/>
      <point x="265.179104478" y="-20.0"/>
      <point x="62.7910447761" y="41.0149253731"/>
      <point x="-29" y="94" type="qcurve"/>
      <point x="35" y="201" type="line"/>
      <point x="118.582089552" y="148.76119403"/>
      <point x="303.52238806" y="92.0"/>
      <point x="408" y="92" type="qcurve" smooth="yes"/>
      <point x="606.507462687" y="92.0"/>
      <point x="868.0" y="355.985074627"/>
      <point x="868" y="553" type="qcurve" smooth="yes"/>
      <point x="868" y="557" type="line" smooth="yes"/>
      <point x="868.0" y="692.820895522"/>
      <point x="732.194029851" y="834.0"/>
      <point x="621" y="834" type="qcurve" smooth="yes"/>
      <point x="529.208955224" y="834.0"/>
      <point x="408.656716418" y="763.955223881"/>
      <point x="340" y="705" type="qcurve"/>
      <point x="193" y="705" type="line"/>
    </contour>
  </outline>
</glyph>
<glyph name="seven" format="1">
  <advance width="1005.568"/>
  <unicode hex="0037"/>
  <outline>
    <contour>
      <point x="264" y="1475" type="line"/>
      <point x="1192" y="1475" type="line"/>
      <point x="1169" y="1382" type="line"/>
      <point x="875.71641791" y="1088.71641791"/>
      <point x="394.835820896" y="339.552238806"/>
      <point x="262" y="0" type="qcurve"/>
      <point x="111" y="0" type="line"/>
      <point x="231.149253731" y="299.253731343"/>
      <point x="710.47761194" y="1058.0"/>
      <point x="1006" y="1358" type="qcurve"/>
      <point x="238" y="1358" type="line"/>
    </contour>
  </outline>
</glyph>
<glyph name="less" format="1">
  <advance width="1228.8"/>
  <unicode hex="003C"/>
  <outline>
    <contour>
      <point x="1163" y="338" type="line"/>
      <point x="1163" y="207" type="line"/>
      <point x="150" y="666" type="line"/>
      <point x="150" y="788" type="line"/>
      <point x="1163" y="1247" type="line"/>
      <point x="1163" y="1116" type="line"/>
      <point x="287" y="727" type="line"/>
    </contour>
  </outline>
</glyph>
<glyph name="question" format="1">
  <advance width="905.216"/>
  <unicode hex="003F"/>
  <outline>
    <contour>
      <point x="655" y="1499" type="qcurve" smooth="yes"/>
      <point x="806.492537313" y="1499.0"/>
      <point x="983.0" y="1348.88059701"/>
      <point x="983" y="1225" type="qcurve" smooth="yes"/>
      <point x="983.0" y="1088.43283582"/>
      <point x="824.268656716" y="901.23880597"/>
      <point x="678" y="799" type="qcurve" smooth="yes"/>
      <point x="564.567164179" y="719.149253731"/>
      <point x="465.552238806" y="575.492537313"/>
      <point x="426" y="424" type="qcurve"/>
      <point x="334" y="424" type="line"/>
      <point x="369.074626866" y="618.029850746"/>
      <point x="482.149253731" y="792.701492537"/>
      <point x="612" y="883" type="qcurve" smooth="yes"/>
      <point x="711.253731343" y="953.149253731"/>
      <point x="842.0" y="1111.25373134"/>
      <point x="842" y="1212" type="qcurve" smooth="yes"/>
      <point x="842.0" y="1300.80597015"/>
      <point x="726.313432836" y="1386.0"/>
      <point x="639" y="1386" type="qcurve" smooth="yes"/>
      <point x="548.701492537" y="1386.0"/>
      <point x="401.134328358" y="1287.2238806"/>
      <point x="328" y="1182" type="qcurve"/>
      <point x="231" y="1245" type="line"/>
      <point x="315.328358209" y="1368.88059701"/>
      <point x="528.134328358" y="1499.0"/>
    </contour>
    <contour>
      <point x="309" y="184" type="qcurve" smooth="yes"/>
      <point x="353.776119403" y="184.0"/>
      <point x="410.0" y="128.537313433"/>
      <point x="410" y="86" type="qcurve" smooth="yes"/>
      <point x="410.0" y="43.4626865672"/>
      <point x="353.776119403" y="-14.0"/>
      <point x="309" y="-14" type="qcurve" smooth="yes"/>
      <point x="266.462686567" y="-14.0"/>
      <point x="211.0" y="43.4626865672"/>
      <point x="211" y="86" type="qcurve" smooth="yes"/>
      <point x="211.0" y="128.537313433"/>
      <point x="266.462686567" y="184.0"/>
    </contour>
  </outline>
</glyph>
<glyph name="A" format="1">
  <advance width="1355.776"/>
  <unicode hex="0041"/>
  <outline>
    <contour>
      <point x="1016" y="1483" type="line"/>
      <point x="1167" y="0" type="line"/>
      <point x="1024" y="0" type="line"/>
      <point x="987" y="393" type="line"/>
      <point x="309" y="393" type="line"/>
      <point x="76" y="0" type="line"/>
      <point x="-74" y="0" type="line"/>
      <point x="815" y="1483" type="line"/>
    </contour>
    <contour>
      <point x="369" y="500" type="line"/>
      <point x="981" y="500" type="line"/>
      <point x="899" y="1366" type="line"/>
      <point x="883" y="1366" type="line"/>
    </contour>
  </outline>
</glyph>
<glyph name="B" format="1">
  <advance width="1241.088"/>
  <unicode hex="0042"/>
  <outline>
    <contour>
      <point x="840" y="1475" type="line" smooth="yes"/>
      <point x="1042.98507463" y="1475.0"/>
      <point x="1249.0" y="1312.04477612"/>
      <point x="1249" y="1171" type="qcurve" smooth="yes"/>
      <point x="1249.0" y="1023.23880597"/>
      <point x="1028.25373134" y="824.582089552"/>
      <point x="879" y="791" type="qcurve"/>
      <point x="879" y="782" type="line"/>
      <point x="988.701492537" y="749.910447761"/>
      <point x="1135.0" y="605.388059701"/>
      <point x="1135" y="483" type="qcurve" smooth="yes"/>
      <point x="1135.0" y="252.402985075"/>
      <point x="792.417910448" y="0.0"/>
      <point x="526" y="0" type="qcurve" smooth="yes"/>
      <point x="39" y="0" type="line"/>
      <point x="408" y="1475" type="line"/>
    </contour>
    <contour>
      <point x="520" y="111" type="line" smooth="yes"/>
      <point x="732.686567164" y="111.0"/>
      <point x="993.0" y="295.925373134"/>
      <point x="993" y="481" type="qcurve" smooth="yes"/>
      <point x="993.0" y="586.970149254"/>
      <point x="841.880597015" y="737.0"/>
      <point x="668" y="737" type="qcurve" smooth="yes"/>
      <point x="367" y="737" type="line"/>
      <point x="209" y="111" type="line"/>
    </contour>
    <contour>
      <point x="694" y="842" type="line" smooth="yes"/>
      <point x="876.089552239" y="842.0"/>
      <point x="1102.0" y="1017.68656716"/>
      <point x="1102" y="1155" type="qcurve" smooth="yes"/>
      <point x="1102.0" y="1252.76119403"/>
      <point x="961.537313433" y="1364.0"/>
      <point x="819" y="1364" type="qcurve" smooth="yes"/>
      <point x="520" y="1364" type="line"/>
      <point x="391" y="842" type="line"/>
    </contour>
  </outline>
</glyph>
<glyph name="C" format="1">
  <advance width="1177.6"/>
  <unicode hex="0043"/>
  <outline>
    <contour>
      <point x="825" y="1499" type="qcurve" smooth="yes"/>
      <point x="1024.25373134" y="1499.0"/>
      <point x="1214.71641791" y="1254.68656716"/>
      <point x="1208" y="1042" type="qcurve"/>
      <point x="1071" y="1014" type="line"/>
      <point x="1072.49253731" y="1190.86567164"/>
      <point x="948.820895522" y="1384.0"/>
      <point x="813" y="1384" type="qcurve" smooth="yes"/>
      <point x="639.119402985" y="1384.0"/>
      <point x="380.194029851" y="1034.10447761"/>
      <point x="319" y="805" type="qcurve" smooth="yes"/>
      <point x="295.119402985" y="714.701492537"/>
      <point x="270.0" y="549.119402985"/>
      <point x="270" y="473" type="qcurve" smooth="yes"/>
      <point x="270" y="469" type="line" smooth="yes"/>
      <point x="270.0" y="311.537313433"/>
      <point x="402.970149254" y="90.0"/>
      <point x="547" y="90" type="qcurve" smooth="yes"/>
      <point x="673.865671642" y="90.0"/>
      <point x="861.373134328" y="271.552238806"/>
      <point x="936" y="432" type="qcurve"/>
      <point x="1063" y="387" type="line"/>
      <point x="969.71641791" y="188.492537313"/>
      <point x="710.373134328" y="-25.0"/>
      <point x="535" y="-25" type="qcurve" smooth="yes"/>
      <point x="338.731343284" y="-25.0"/>
      <point x="125.0" y="242.880597015"/>
      <point x="125" y="469" type="qcurve" smooth="yes"/>
      <point x="125" y="475" type="line" smooth="yes"/>
      <point x="125.0" y="542.164179104"/>
      <point x="141.343283582" y="680.149253731"/>
      <point x="160" y="760" type="qcurve" smooth="yes"/>
      <point x="225.671641791" y="1059.25373134"/>
      <point x="571.268656716" y="1499.0"/>
    </contour>
  </outline>
</glyph>
<glyph name="E" format="1">
  <advance width="1130.496"/>
  <unicode hex="0045"/>
  <outline>
    <contour>
      <point x="408" y="1475" type="line"/>
      <point x="1262" y="1475" type="line"/>
      <point x="1233" y="1358" type="line"/>
      <point x="522" y="1358" type="line"/>
      <point x="389" y="827" type="line"/>
      <point x="979" y="827" type="line"/>
      <point x="952" y="715" type="line"/>
      <point x="365" y="715" type="line"/>
      <point x="215" y="117" type="line"/>
      <point x="948" y="117" type="line"/>
      <point x="918" y="0" type="line"/>
      <point x="39" y="0" type="line"/>
    </contour>
  </outline>
</glyph>
<glyph name="F" format="1">
  <advance width="1067.008"/>
  <unicode hex="0046"/>
  <outline>
    <contour>
      <point x="408" y="1475" type="line"/>
      <point x="1253" y="1475" type="line"/>
      <point x="1223" y="1358" type="line"/>
      <point x="524" y="1358" type="line"/>
      <point x="385" y="795" type="line"/>
      <point x="944" y="795" type="line"/>
      <point x="915" y="680" type="line"/>
      <point x="356" y="680" type="line"/>
      <point x="186" y="0" type="line"/>
      <point x="39" y="0" type="line"/>
    </contour>
  </outline>
</glyph>
<glyph name="G" format="1">
  <advance width="1257.472"/>
  <unicode hex="0047"/>
  <outline>
    <contour>
      <point x="827" y="1499" type="qcurve" smooth="yes"/>
      <point x="1010.58208955" y="1499.0"/>
      <point x="1193.10447761" y="1289.71641791"/>
      <point x="1214" y="1133" type="qcurve"/>
      <point x="1075" y="1096" type="line"/>
      <point x="1054.10447761" y="1224.35820896"/>
      <point x="941.865671642" y="1384.0"/>
      <point x="815" y="1384" type="qcurve" smooth="yes"/>
      <point x="639.626865672" y="1384.0"/>
      <point x="380.194029851" y="1034.10447761"/>
      <point x="319" y="805" type="qcurve" smooth="yes"/>
      <point x="295.119402985" y="714.701492537"/>
      <point x="270.0" y="547.626865672"/>
      <point x="270" y="473" type="qcurve" smooth="yes"/>
      <point x="270" y="469" type="line" smooth="yes"/>
      <point x="270.0" y="311.537313433"/>
      <point x="403.417910448" y="90.0"/>
      <point x="537" y="90" type="qcurve" smooth="yes"/>
      <point x="672.820895522" y="90.0"/>
      <point x="895.179104478" y="353.223880597"/>
      <point x="981" y="598" type="qcurve"/>
      <point x="649" y="598" type="line"/>
      <point x="670" y="684" type="line"/>
      <point x="1169" y="684" type="line"/>
      <point x="997" y="0" type="line"/>
      <point x="915" y="0" type="line"/>
      <point x="1014" y="428" type="line"/>
      <point x="1004" y="428" type="line"/>
      <point x="905.492537313" y="216.805970149"/>
      <point x="686.417910448" y="-25.0"/>
      <point x="520" y="-25" type="qcurve" smooth="yes"/>
      <point x="336.417910448" y="-25.0"/>
      <point x="125.0" y="242.880597015"/>
      <point x="125" y="469" type="qcurve" smooth="yes"/>
      <point x="125" y="475" type="line" smooth="yes"/>
      <point x="125.0" y="542.164179104"/>
      <point x="141.343283582" y="680.149253731"/>
      <point x="160" y="760" type="qcurve" smooth="yes"/>
      <point x="225.671641791" y="1059.25373134"/>
      <point x="571.776119403" y="1499.0"/>
    </contour>
  </outline>
</glyph>
<glyph name="H" format="1">
  <advance width="1275.904"/>
  <unicode hex="0048"/>
  <outline>
    <contour>
      <point x="1194" y="1475" type="line"/>
      <point x="1339" y="1475" type="line"/>
      <point x="973" y="0" type="line"/>
      <point x="825" y="0" type="line"/>
      <point x="1004" y="711" type="line"/>
      <point x="365" y="711" type="line"/>
      <point x="186" y="0" type="line"/>
      <point x="39" y="0" type="line"/>
      <point x="408" y="1475" type="line"/>
      <point x="553" y="1475" type="line"/>
      <point x="393" y="834" type="line"/>
      <point x="1032" y="834" type="line"/>
    </contour>
  </outline>
</glyph>
<glyph name="I" format="1">
  <advance width="792.576"/>
  <unicode hex="0049"/>
  <outline>
    <contour>
      <point x="350" y="1475" type="line"/>
      <point x="915" y="1475" type="line"/>
      <point x="895" y="1397" type="line"/>
      <point x="686" y="1397" type="line"/>
      <point x="356" y="78" type="line"/>
      <point x="567" y="78" type="line"/>
      <point x="547" y="0" type="line"/>
      <point x="-18" y="0" type="line"/>
      <point x="0" y="78" type="line"/>
      <point x="211" y="78" type="line"/>
      <point x="539" y="1397" type="line"/>
      <point x="330" y="1397" type="line"/>
    </contour>
  </outline>
</glyph>
<glyph name="J" format="1">
  <advance width="989.184"/>
  <unicode hex="004A"/>
  <outline>
    <contour>
      <point x="915" y="1475" type="line"/>
      <point x="1063" y="1475" type="line"/>
      <point x="801" y="420" type="line" smooth="yes"/>
      <point x="745.776119403" y="199.850746269"/>
      <point x="511.850746269" y="-25.0"/>
      <point x="332" y="-25" type="qcurve" smooth="yes"/>
      <point x="180.507462687" y="-25.0"/>
      <point x="2.0" y="125.641791045"/>
      <point x="2" y="254" type="qcurve" smooth="yes"/>
      <point x="2.0" y="281.611940299"/>
      <point x="8.53731343284" y="341.925373134"/>
      <point x="16" y="377" type="qcurve"/>
      <point x="162" y="418" type="line"/>
      <point x="153.044776119" y="379.940298507"/>
      <point x="143.0" y="313.597014925"/>
      <point x="143" y="283" type="qcurve" smooth="yes"/>
      <point x="143.0" y="188.223880597"/>
      <point x="243.253731343" y="92.0"/>
      <point x="344" y="92" type="qcurve" smooth="yes"/>
      <point x="455.940298507" y="92.0"/>
      <point x="612.970149254" y="262.626865672"/>
      <point x="657" y="438" type="qcurve" smooth="yes"/>
    </contour>
  </outline>
</glyph>
<glyph name="L" format="1">
  <advance width="1036.288"/>
  <unicode hex="004C"/>
  <outline>
    <contour>
      <point x="217" y="121" type="line"/>
      <point x="899" y="121" type="line"/>
      <point x="868" y="0" type="line"/>
      <point x="39" y="0" type="line"/>
      <point x="408" y="1475" type="line"/>
      <point x="553" y="1475" type="line"/>
    </contour>
  </outline>
</glyph>
<glyph name="M" format="1">
  <advance width="1691.648"/>
  <unicode hex="004D"/>
  <outline>
    <contour>
      <point x="1497" y="1475" type="line"/>
      <point x="1753" y="1475" type="line"/>
      <point x="1386" y="0" type="line"/>
      <point x="1245" y="0" type="line"/>
      <point x="1579" y="1339" type="line"/>
      <point x="1559" y="1339" type="line"/>
      <point x="793" y="0" type="line"/>
      <point x="625" y="0" type="line"/>
      <point x="528" y="1339" type="line"/>
      <point x="508" y="1339" type="line"/>
      <point x="174" y="0" type="line"/>
      <point x="39" y="0" type="line"/>
      <point x="408" y="1475" type="line"/>
      <point x="653" y="1475" type="line"/>
      <point x="741" y="172" type="line"/>
      <point x="758" y="172" type="line"/>
    </contour>
  </outline>
</glyph>
<glyph name="N" format="1">
  <advance width="1310.72"/>
  <unicode hex="004E"/>
  <outline>
    <contour>
      <point x="1233" y="1475" type="line"/>
      <point x="1370" y="1475" type="line"/>
      <point x="1004" y="0" type="line"/>
      <point x="831" y="0" type="line"/>
      <point x="512" y="1288" type="line"/>
      <point x="496" y="1288" type="line"/>
      <point x="176" y="0" type="line"/>
      <point x="39" y="0" type="line"/>
      <point x="408" y="1475" type="line"/>
      <point x="592" y="1475" type="line"/>
      <point x="905" y="213" type="line"/>
      <point x="920" y="213" type="line"/>
    </contour>
  </outline>
</glyph>
<glyph name="R" format="1">
  <advance width="1216.512"/>
  <unicode hex="0052"/>
  <outline>
    <contour>
      <point x="809" y="1475" type="line" smooth="yes"/>
      <point x="1013.47761194" y="1475.0"/>
      <point x="1235.0" y="1304.91044776"/>
      <point x="1235" y="1137" type="qcurve" smooth="yes"/>
      <point x="1235.0" y="934.76119403"/>
      <point x="960.164179104" y="689.402985075"/>
      <point x="743" y="670" type="qcurve"/>
      <point x="1026" y="0" type="line"/>
      <point x="866" y="0" type="line"/>
      <point x="598" y="655" type="line"/>
      <point x="348" y="655" type="line"/>
      <point x="186" y="0" type="line"/>
      <point x="39" y="0" type="line"/>
      <point x="408" y="1475" type="line"/>
    </contour>
    <contour>
      <point x="639" y="764" type="line" smooth="yes"/>
      <point x="841.985074627" y="764.0"/>
      <point x="1090.0" y="948.626865672"/>
      <point x="1090" y="1124" type="qcurve" smooth="yes"/>
      <point x="1090.0" y="1241.91044776"/>
      <point x="939.970149254" y="1364.0"/>
      <point x="784" y="1364" type="qcurve" smooth="yes"/>
      <point x="522" y="1364" type="line"/>
      <point x="371" y="764" type="line"/>
    </contour>
  </outline>
</glyph>
<glyph name="U" format="1">
  <advance width="1271.808"/>
  <unicode hex="0055"/>
  <outline>
    <contour>
      <point x="1208" y="1475" type="line"/>
      <point x="1343" y="1475" type="line"/>
      <point x="1096" y="473" type="line" smooth="yes"/>
      <point x="1031.82089552" y="216.28358209"/>
      <point x="749.059701493" y="-25.0"/>
      <point x="561" y="-25" type="qcurve" smooth="yes"/>
      <point x="372.940298507" y="-25.0"/>
      <point x="141.0" y="163.432835821"/>
      <point x="141" y="350" type="qcurve" smooth="yes"/>
      <point x="141.0" y="402.23880597"/>
      <point x="156.059701493" y="509.507462687"/>
      <point x="168" y="561" type="qcurve" smooth="yes"/>
      <point x="395" y="1475" type="line"/>
      <point x="543" y="1475" type="line"/>
      <point x="315" y="561" type="line" smooth="yes"/>
      <point x="301.567164179" y="505.776119403"/>
      <point x="289.0" y="406.044776119"/>
      <point x="289" y="365" type="qcurve" smooth="yes"/>
      <point x="289.0" y="236.641791045"/>
      <point x="431.686567164" y="92.0"/>
      <point x="569" y="92" type="qcurve" smooth="yes"/>
      <point x="704.074626866" y="92.0"/>
      <point x="910.76119403" y="280.044776119"/>
      <point x="963" y="489" type="qcurve" smooth="yes"/>
    </contour>
  </outline>
</glyph>
<glyph name="V" format="1">
  <advance width="1253.376"/>
  <unicode hex="0056"/>
  <outline>
    <contour>
      <point x="1278" y="1475" type="line"/>
      <point x="1430" y="1475" type="line"/>
      <point x="575" y="-14" type="line"/>
      <point x="406" y="-14" type="line"/>
      <point x="293" y="1475" type="line"/>
      <point x="436" y="1475" type="line"/>
      <point x="518" y="135" type="line"/>
      <point x="530" y="135" type="line"/>
    </contour>
  </outline>
</glyph>
<glyph name="W" format="1">
  <advance width="1986.56"/>
  <unicode hex="0057"/>
  <outline>
    <contour>
      <point x="1958" y="1475" type="line"/>
      <point x="2111" y="1475" type="line"/>
      <point x="1348" y="-12" type="line"/>
      <point x="1180" y="-12" type="line"/>
      <point x="1171" y="1303" type="line"/>
      <point x="1153" y="1303" type="line"/>
      <point x="489" y="-12" type="line"/>
      <point x="322" y="-12" type="line"/>
      <point x="301" y="1475" type="line"/>
      <point x="444" y="1475" type="line"/>
      <point x="440" y="154" type="line"/>
      <point x="455" y="154" type="line"/>
      <point x="1106" y="1475" type="line"/>
      <point x="1292" y="1475" type="line"/>
      <point x="1294" y="154" type="line"/>
      <point x="1309" y="154" type="line"/>
    </contour>
  </outline>
</glyph>
<glyph name="Y" format="1">
  <advance width="1253.376"/>
  <unicode hex="0059"/>
  <outline>
    <contour>
      <point x="1300" y="1475" type="line"/>
      <point x="1454" y="1475" type="line"/>
      <point x="711" y="569" type="line"/>
      <point x="569" y="0" type="line"/>
      <point x="424" y="0" type="line"/>
      <point x="563" y="567" type="line"/>
      <point x="272" y="1475" type="line"/>
      <point x="426" y="1475" type="line"/>
      <point x="668" y="690" type="line"/>
    </contour>
  </outline>
</glyph>
<glyph name="bracketleft" format="1">
  <advance width="694.272"/>
  <unicode hex="005B"/>
  <outline>
    <contour>
      <point x="379" y="1491" type="line"/>
      <point x="881" y="1475" type="line"/>
      <point x="860" y="1395" type="line"/>
      <point x="492" y="1409" type="line"/>
      <point x="119" y="-98" type="line"/>
      <point x="489" y="-84" type="line"/>
      <point x="471" y="-164" type="line"/>
      <point x="-35" y="-180" type="line"/>
    </contour>
  </outline>
</glyph>
<glyph name="backslash" format="1">
  <advance width="776.192"/>
  <unicode hex="005C"/>
  <outline>
    <contour>
      <point x="399" y="1505" type="line"/>
      <point x="623" y="-195" type="line"/>
      <point x="498" y="-195" type="line"/>
      <point x="276" y="1505" type="line"/>
    </contour>
  </outline>
</glyph>
<glyph name="a" format="1">
  <advance width="1042.432"/>
  <unicode hex="0061"/>
  <outline>
    <contour>
      <point x="899" y="1077" type="line"/>
      <point x="1024" y="1030" type="line"/>
      <point x="774" y="27" type="line"/>
      <point x="629" y="-18" type="line"/>
      <point x="700" y="274" type="line"/>
      <point x="690" y="274" type="line"/>
      <point x="564.626865672" y="110.567164179"/>
      <point x="388.820895522" y="-20.0"/>
      <point x="303" y="-20" type="qcurve" smooth="yes"/>
      <point x="179.119402985" y="-20.0"/>
      <point x="66.0" y="172.194029851"/>
      <point x="66" y="311" type="qcurve" smooth="yes"/>
      <point x="66" y="315" type="line" smooth="yes"/>
      <point x="66.0" y="631.417910448"/>
      <point x="375.865671642" y="1077.0"/>
      <point x="549" y="1077" type="qcurve" smooth="yes"/>
      <point x="651.23880597" y="1077.0"/>
      <point x="768.044776119" y="955.358208955"/>
      <point x="827" y="827" type="qcurve"/>
      <point x="840" y="827" type="line"/>
    </contour>
    <contour>
      <point x="367" y="80" type="qcurve" smooth="yes"/>
      <point x="498.343283582" y="80.0"/>
      <point x="797.0" y="531.402985075"/>
      <point x="797" y="662" type="qcurve" smooth="yes"/>
      <point x="797.0" y="782.149253731"/>
      <point x="669.044776119" y="983.0"/>
      <point x="578" y="983" type="qcurve" smooth="yes"/>
      <point x="441.432835821" y="983.0"/>
      <point x="203.0" y="583.253731343"/>
      <point x="203" y="334" type="qcurve" smooth="yes"/>
      <point x="203.0" y="228.776119403"/>
      <point x="270.731343284" y="80.0"/>
    </contour>
  </outline>
</glyph>
<glyph name="e" format="1">
  <advance width="929.792"/>
  <unicode hex="0065"/>
  <outline>
    <contour>
      <point x="590" y="1079" type="qcurve" smooth="yes"/>
      <point x="750.447761194" y="1079.0"/>
      <point x="877.0" y="862.850746269"/>
      <point x="877" y="733" type="qcurve" smooth="yes"/>
      <point x="877.0" y="681.507462687"/>
      <point x="858.925373134" y="556.985074627"/>
      <point x="844" y="504" type="qcurve"/>
      <point x="209" y="504" type="line"/>
      <point x="203.029850746" y="468.925373134"/>
      <point x="197.0" y="394.805970149"/>
      <point x="197" y="356" type="qcurve" smooth="yes"/>
      <point x="197" y="352" type="line" smooth="yes"/>
      <point x="197.0" y="223.641791045"/>
      <point x="308.507462687" y="80.0"/>
      <point x="410" y="80" type="qcurve" smooth="yes"/>
      <point x="489.104477612" y="80.0"/>
      <point x="625.880597015" y="148.28358209"/>
      <point x="702" y="205" type="qcurve"/>
      <point x="741" y="119" type="line"/>
      <point x="661.895522388" y="54.8208955224"/>
      <point x="496.223880597" y="-20.0"/>
      <point x="391" y="-20" type="qcurve" smooth="yes"/>
      <point x="243.23880597" y="-20.0"/>
      <point x="68.0" y="174.597014925"/>
      <point x="68" y="344" type="qcurve" smooth="yes"/>
      <point x="68" y="348" type="line" smooth="yes"/>
      <point x="68.0" y="404.71641791"/>
      <point x="82.5671641791" y="522.776119403"/>
      <point x="96" y="578" type="qcurve" smooth="yes"/>
      <point x="152.71641791" y="797.402985075"/>
      <point x="422.089552239" y="1079.0"/>
    </contour>
    <contour>
      <point x="733" y="584" type="line"/>
      <point x="741.955223881" y="626.537313433"/>
      <point x="750.0" y="697.925373134"/>
      <point x="750" y="733" type="qcurve" smooth="yes"/>
      <point x="750.0" y="835.23880597"/>
      <point x="679.76119403" y="987.0"/>
      <point x="582" y="987" type="qcurve" smooth="yes"/>
      <point x="470.059701493" y="987.0"/>
      <point x="268.791044776" y="756.388059701"/>
      <point x="227" y="584" type="qcurve"/>
    </contour>
  </outline>
</glyph>
<glyph name="h" format="1">
  <advance width="1001.472"/>
  <unicode hex="0068"/>
  <outline>
    <contour>
      <point x="756" y="1069" type="qcurve" smooth="yes"/>
      <point x="849.28358209" y="1069.0"/>
      <point x="942.0" y="969.089552239"/>
      <point x="942" y="887" type="qcurve" smooth="yes"/>
      <point x="942.0" y="859.388059701"/>
      <point x="932.955223881" y="787.074626866"/>
      <point x="924" y="752" type="qcurve" smooth="yes"/>
      <point x="737" y="0" type="line"/>
      <point x="600" y="0" type="line"/>
      <point x="782" y="727" type="line" smooth="yes"/>
      <point x="790.208955224" y="757.597014925"/>
      <point x="799.0" y="819.373134328"/>
      <point x="799" y="844" type="qcurve" smooth="yes"/>
      <point x="799.0" y="899.223880597"/>
      <point x="743.194029851" y="965.0"/>
      <point x="682" y="965" type="qcurve" smooth="yes"/>
      <point x="613.343283582" y="965.0"/>
      <point x="428.402985075" y="816.940298507"/>
      <point x="309" y="655" type="qcurve"/>
      <point x="147" y="0" type="line"/>
      <point x="10" y="0" type="line"/>
      <point x="387" y="1511" type="line"/>
      <point x="535" y="1559" type="line"/>
      <point x="340" y="780" type="line"/>
      <point x="352" y="780" type="line"/>
      <point x="462.447761194" y="918.059701493"/>
      <point x="648.537313433" y="1069.0"/>
    </contour>
  </outline>
</glyph>
<glyph name="l" format="1">
  <advance width="458.752"/>
  <unicode hex="006C"/>
  <outline>
    <contour>
      <point x="406" y="1511" type="line"/>
      <point x="551" y="1559" type="line"/>
      <point x="166" y="0" type="line"/>
      <point x="29" y="0" type="line"/>
    </contour>
  </outline>
</glyph>
<glyph name="p" format="1">
  <advance width="1042.432"/>
  <unicode hex="0070"/>
  <outline>
    <contour>
      <point x="977" y="748" type="qcurve" smooth="yes"/>
      <point x="977" y="743" type="line" smooth="yes"/>
      <point x="977.0" y="426.582089552"/>
      <point x="666.388059701" y="-20.0"/>
      <point x="494" y="-20" type="qcurve" smooth="yes"/>
      <point x="391.014925373" y="-20.0"/>
      <point x="274.701492537" y="102.641791045"/>
      <point x="215" y="231" type="qcurve"/>
      <point x="203" y="231" type="line"/>
      <point x="51" y="-385" type="line"/>
      <point x="-86" y="-385" type="line"/>
      <point x="268" y="1030" type="line"/>
      <point x="414" y="1077" type="line"/>
      <point x="342" y="782" type="line"/>
      <point x="352" y="782" type="line"/>
      <point x="477.373134328" y="947.671641791"/>
      <point x="653.925373134" y="1077.0"/>
      <point x="739" y="1077" type="qcurve" smooth="yes"/>
      <point x="862.880597015" y="1077.0"/>
      <point x="977.0" y="885.313432836"/>
    </contour>
    <contour>
      <point x="465" y="76" type="qcurve" smooth="yes"/>
      <point x="600.820895522" y="76.0"/>
      <point x="840.0" y="475.23880597"/>
      <point x="840" y="723" type="qcurve" smooth="yes"/>
      <point x="840.0" y="829.71641791"/>
      <point x="772.268656716" y="979.0"/>
      <point x="676" y="979" type="qcurve" smooth="yes"/>
      <point x="544.656716418" y="979.0"/>
      <point x="248.0" y="526.850746269"/>
      <point x="248" y="397" type="qcurve" smooth="yes"/>
      <point x="248.0" y="276.850746269"/>
      <point x="373.208955224" y="76.0"/>
    </contour>
  </outline>
</glyph>
<glyph name="s" format="1">
  <advance width="825.344"/>
  <unicode hex="0073"/>
  <outline>
    <contour>
      <point x="498" y="1077" type="qcurve" smooth="yes"/>
      <point x="597.253731343" y="1077.0"/>
      <point x="758.313432836" y="1002.68656716"/>
      <point x="821" y="940" type="qcurve"/>
      <point x="739" y="862" type="line"/>
      <point x="684.52238806" y="921.701492537"/>
      <point x="556.402985075" y="985.0"/>
      <point x="487" y="985" type="qcurve" smooth="yes"/>
      <point x="397.447761194" y="985.0"/>
      <point x="285.0" y="882.104477612"/>
      <point x="285" y="803" type="qcurve" smooth="yes"/>
      <point x="285.0" y="738.820895522"/>
      <point x="361.268656716" y="646.746268657"/>
      <point x="465" y="596" type="qcurve" smooth="yes"/>
      <point x="587.388059701" y="536.298507463"/>
      <point x="705.0" y="402.253731343"/>
      <point x="705" y="303" type="qcurve" smooth="yes"/>
      <point x="705.0" y="162.701492537"/>
      <point x="498.47761194" y="-18.0"/>
      <point x="344" y="-18" type="qcurve" smooth="yes"/>
      <point x="223.104477612" y="-18.0"/>
      <point x="41.8955223881" y="65.3582089552"/>
      <point x="-29" y="137" type="qcurve"/>
      <point x="51" y="217" type="line"/>
      <point x="110.701492537" y="149.835820896"/>
      <point x="258.71641791" y="72.0"/>
      <point x="352" y="72" type="qcurve" smooth="yes"/>
      <point x="454.23880597" y="72.0"/>
      <point x="578.0" y="192.194029851"/>
      <point x="578" y="281" type="qcurve" smooth="yes"/>
      <point x="578.0" y="352.641791045"/>
      <point x="493.208955224" y="442.776119403"/>
      <point x="385" y="498" type="qcurve" smooth="yes"/>
      <point x="268.582089552" y="557.701492537"/>
      <point x="160.0" y="687.731343284"/>
      <point x="160" y="784" type="qcurve" smooth="yes"/>
      <point x="160.0" y="907.880597015"/>
      <point x="346.507462687" y="1077.0"/>
    </contour>
  </outline>
</glyph>
<glyph name="t" format="1">
  <advance width="724.992"/>
  <unicode hex="0074"/>
  <outline>
    <contour>
      <point x="487" y="1049" type="line"/>
      <point x="754" y="1049" type="line"/>
      <point x="729" y="950" type="line"/>
      <point x="463" y="950" type="line"/>
      <point x="293" y="268" type="line" smooth="yes"/>
      <point x="287.029850746" y="245.611940299"/>
      <point x="279.0" y="200.656716418"/>
      <point x="279" y="182" type="qcurve" smooth="yes"/>
      <point x="279.0" y="136.47761194"/>
      <point x="339.0" y="86.0"/>
      <point x="389" y="86" type="qcurve" smooth="yes"/>
      <point x="430.044776119" y="86.0"/>
      <point x="523.313432836" y="114.910447761"/>
      <point x="586" y="147" type="qcurve"/>
      <point x="555" y="31" type="line"/>
      <point x="495.298507463" y="4.88059701493"/>
      <point x="394.208955224" y="-20.0"/>
      <point x="336" y="-20" type="qcurve" smooth="yes"/>
      <point x="244.208955224" y="-20.0"/>
      <point x="139.0" y="70.1492537313"/>
      <point x="139" y="150" type="qcurve" smooth="yes"/>
      <point x="139.0" y="170.895522388"/>
      <point x="147.28358209" y="227.880597015"/>
      <point x="154" y="254" type="qcurve" smooth="yes"/>
      <point x="328" y="950" type="line"/>
      <point x="135" y="950" type="line"/>
      <point x="160" y="1049" type="line"/>
      <point x="352" y="1049" type="line"/>
      <point x="453" y="1452" type="line"/>
      <point x="598" y="1497" type="line"/>
    </contour>
  </outline>
</glyph>
<glyph name="v" format="1">
  <advance width="937.984"/>
  <unicode hex="0076"/>
  <outline>
    <contour>
      <point x="879" y="1059" type="line"/>
      <point x="1018" y="1059" type="line"/>
      <point x="406" y="-12" type="line"/>
      <point x="264" y="-12" type="line"/>
      <point x="184" y="1059" type="line"/>
      <point x="322" y="1059" type="line"/>
      <point x="367" y="131" type="line"/>
    </contour>
  </outline>
</glyph>
<glyph name="w" format="1">
  <advance width="1533.952"/>
  <unicode hex="0077"/>
  <outline>
    <contour>
      <point x="1470" y="1059" type="line"/>
      <point x="1610" y="1059" type="line"/>
      <point x="1018" y="-8" type="line"/>
      <point x="879" y="-8" type="line"/>
      <point x="858" y="889" type="line"/>
      <point x="387" y="-8" type="line"/>
      <point x="248" y="-8" type="line"/>
      <point x="190" y="1059" type="line"/>
      <point x="326" y="1059" type="line"/>
      <point x="354" y="139" type="line"/>
      <point x="831" y="1059" type="line"/>
      <point x="965" y="1059" type="line"/>
      <point x="981" y="139" type="line"/>
    </contour>
  </outline>
</glyph>
<glyph name="x" format="1">
  <advance width="950.272"/>
  <unicode hex="0078"/>
  <outline>
    <contour>
      <point x="862" y="1059" type="line"/>
      <point x="1008" y="1059" type="line"/>
      <point x="543" y="537" type="line"/>
      <point x="758" y="0" type="line"/>
      <point x="618" y="0" type="line"/>
      <point x="453" y="444" type="line"/>
      <point x="76" y="0" type="line"/>
      <point x="-72" y="0" type="line"/>
      <point x="410" y="541" type="line"/>
      <point x="203" y="1059" type="line"/>
      <point x="342" y="1059" type="line"/>
      <point x="500" y="631" type="line"/>
    </contour>
  </outline>
</glyph>
<glyph name="z" format="1">
  <advance width="847.872"/>
  <unicode hex="007A"/>
  <outline>
    <contour>
      <point x="223" y="1051" type="line"/>
      <point x="911" y="1051" type="line"/>
      <point x="891" y="965" type="line"/>
      <point x="111" y="98" type="line"/>
      <point x="676" y="98" type="line"/>
      <point x="651" y="0" type="line"/>
      <point x="-70" y="0" type="line"/>
      <point x="-47" y="86" type="line"/>
      <point x="731" y="950" type="line"/>
      <point x="197" y="950" type="line"/>
    </contour>
  </outline>
</glyph>
<glyph name="braceright" format="1">
  <advance width="784.384"/>
  <unicode hex="007D"/>
  <outline>
    <contour>
      <point x="551" y="844" type="qcurve" smooth="yes"/>
      <point x="551.0" y="775.343283582"/>
      <point x="663.313432836" y="696.0"/>
      <point x="776" y="696" type="qcurve"/>
      <point x="758" y="614" type="line"/>
      <point x="643.074626866" y="614.0"/>
      <point x="465.611940299" y="520.208955224"/>
      <point x="438" y="412" type="qcurve" smooth="yes"/>
      <point x="421.582089552" y="341.104477612"/>
      <point x="413.149253731" y="139.358208955"/>
      <point x="393" y="61" type="qcurve" smooth="yes"/>
      <point x="365.388059701" y="-51.6865671642"/>
      <point x="211.313432836" y="-164.0"/>
      <point x="74" y="-164" type="qcurve" smooth="yes"/>
      <point x="-104" y="-164" type="line"/>
      <point x="-84" y="-84" type="line"/>
      <point x="51" y="-84" type="line" smooth="yes"/>
      <point x="139.805970149" y="-84.0"/>
      <point x="242.089552239" y="-9.14925373134"/>
      <point x="260" y="61" type="qcurve" smooth="yes"/>
      <point x="280.149253731" y="139.358208955"/>
      <point x="280.850746269" y="315.895522388"/>
      <point x="301" y="395" type="qcurve" smooth="yes"/>
      <point x="330.104477612" y="514.402985075"/>
      <point x="471.044776119" y="616.910447761"/>
      <point x="580" y="649" type="qcurve"/>
      <point x="584" y="666" type="line"/>
      <point x="501.164179104" y="691.373134328"/>
      <point x="424.0" y="770.119402985"/>
      <point x="424" y="844" type="qcurve" smooth="yes"/>
      <point x="424.0" y="947.731343284"/>
      <point x="561.0" y="1196.71641791"/>
      <point x="561" y="1290" type="qcurve" smooth="yes"/>
      <point x="561.0" y="1339.25373134"/>
      <point x="490.656716418" y="1395.0"/>
      <point x="422" y="1395" type="qcurve" smooth="yes"/>
      <point x="285" y="1395" type="line"/>
      <point x="305" y="1475" type="line"/>
      <point x="471" y="1475" type="line" smooth="yes"/>
      <point x="579.208955224" y="1475.0"/>
      <point x="690.0" y="1390.07462687"/>
      <point x="690" y="1305" type="qcurve" smooth="yes"/>
      <point x="690.0" y="1185.59701493"/>
      <point x="551.0" y="941.76119403"/>
    </contour>
  </outline>
</glyph>
<glyph name="cent" format="1">
  <advance width="937.984"/>
  <unicode hex="00A2"/>
  <outline>
    <contour>
      <point x="924" y="1253" type="line"/>
      <point x="1016" y="1253" type="line"/>
      <point x="283" y="113" type="line"/>
      <point x="308.373134328" y="92.8507462687"/>
      <point x="374.686567164" y="74.0"/>
      <point x="412" y="74" type="qcurve" smooth="yes"/>
      <point x="488.119402985" y="74.0"/>
      <point x="622.835820896" y="169.701492537"/>
      <point x="690" y="260" type="qcurve"/>
      <point x="784" y="213" type="line"/>
      <point x="707.880597015" y="104.791044776"/>
      <point x="516.910447761" y="-20.0"/>
      <point x="399" y="-20" type="qcurve" smooth="yes"/>
      <point x="350.492537313" y="-20.0"/>
      <point x="261.567164179" y="1.86567164179"/>
      <point x="225" y="25" type="qcurve"/>
      <point x="84" y="-195" type="line"/>
      <point x="-6" y="-195" type="line"/>
      <point x="168" y="68" type="line"/>
      <point x="120.23880597" y="113.52238806"/>
      <point x="68.0" y="252.208955224"/>
      <point x="68" y="344" type="qcurve" smooth="yes"/>
      <point x="68" y="348" type="line" smooth="yes"/>
      <point x="68.0" y="401.731343284"/>
      <point x="82.5671641791" y="519.029850746"/>
      <point x="96" y="575" type="qcurve" smooth="yes"/>
      <point x="148.23880597" y="778.731343284"/>
      <point x="406.985074627" y="1079.0"/>
      <point x="604" y="1079" type="qcurve" smooth="yes"/>
      <point x="662.208955224" y="1079.0"/>
      <point x="749.432835821" y="1055.64179104"/>
      <point x="786" y="1034" type="qcurve"/>
    </contour>
    <contour>
      <point x="238" y="162" type="qcurve"/>
      <point x="729" y="944" type="line"/>
      <point x="701.388059701" y="964.149253731"/>
      <point x="636.029850746" y="985.0"/>
      <point x="592" y="985" type="qcurve" smooth="yes"/>
      <point x="463.641791045" y="985.0"/>
      <point x="273.268656716" y="752.895522388"/>
      <point x="227" y="582" type="qcurve" smooth="yes"/>
      <point x="210.582089552" y="519.313432836"/>
      <point x="193.0" y="404.208955224"/>
      <point x="193" y="346" type="qcurve" smooth="yes"/>
      <point x="193" y="342" type="line" smooth="yes"/>
      <point x="193.0" y="285.28358209"/>
      <point x="216.358208955" y="195.582089552"/>
    </contour>
  </outline>
</glyph>
<glyph name="sterling" format="1">
  <advance width="1169.408"/>
  <unicode hex="00A3"/>
  <outline>
    <contour>
      <point x="819" y="1497" type="qcurve" smooth="yes"/>
      <point x="993.626865672" y="1497.0"/>
      <point x="1186.28358209" y="1353.41791045"/>
      <point x="1243" y="1237" type="qcurve"/>
      <point x="1122" y="1178" type="line"/>
      <point x="1067.52238806" y="1280.23880597"/>
      <point x="931.388059701" y="1386.0"/>
      <point x="809" y="1386" type="qcurve" smooth="yes"/>
      <point x="656.014925373" y="1386.0"/>
      <point x="500.0" y="1172.6119403"/>
      <point x="500" y="995" type="qcurve" smooth="yes"/>
      <point x="500" y="778" type="line"/>
      <point x="891" y="778" type="line"/>
      <point x="866" y="686" type="line"/>
      <point x="500" y="686" type="line"/>
      <point x="500" y="655" type="line" smooth="yes"/>
      <point x="500.0" y="525.149253731"/>
      <point x="447.746268657" y="315.104477612"/>
      <point x="397" y="236" type="qcurve"/>
      <point x="464.164179104" y="171.820895522"/>
      <point x="596.626865672" y="102.0"/>
      <point x="672" y="102" type="qcurve" smooth="yes"/>
      <point x="762.298507463" y="102.0"/>
      <point x="893.313432836" y="215.194029851"/>
      <point x="956" y="354" type="qcurve"/>
      <point x="1059" y="315" type="line"/>
      <point x="985.865671642" y="138.134328358"/>
      <point x="795.373134328" y="-12.0"/>
      <point x="670" y="-12" type="qcurve" smooth="yes"/>
      <point x="567.014925373" y="-12.0"/>
      <point x="406.597014925" y="73.8656716418"/>
      <point x="326" y="147" type="qcurve"/>
      <point x="261.820895522" y="86.552238806"/>
      <point x="88.2089552239" y="5.91044776119"/>
      <point x="-20" y="-12" type="qcurve"/>
      <point x="8" y="100" type="line"/>
      <point x="178.149253731" y="146.268656716"/>
      <point x="365.0" y="400.373134328"/>
      <point x="365" y="625" type="qcurve" smooth="yes"/>
      <point x="365" y="686" type="line"/>
      <point x="117" y="686" type="line"/>
      <point x="141" y="778" type="line"/>
      <point x="365" y="778" type="line"/>
      <point x="365" y="977" type="line" smooth="yes"/>
      <point x="365.0" y="1212.07462687"/>
      <point x="595.865671642" y="1497.0"/>
    </contour>
  </outline>
</glyph>
<glyph name="yen" format="1">
  <advance width="1249.28"/>
  <unicode hex="00A5"/>
  <outline>
    <contour>
      <point x="1282" y="1475" type="line"/>
      <point x="1440" y="1475" type="line"/>
      <point x="877" y="782" type="line"/>
      <point x="1167" y="782" type="line"/>
      <point x="1143" y="692" type="line"/>
      <point x="803" y="692" type="line"/>
      <point x="702" y="569" type="line"/>
      <point x="664" y="408" type="line"/>
      <point x="1073" y="408" type="line"/>
      <point x="1049" y="315" type="line"/>
      <point x="641" y="315" type="line"/>
      <point x="563" y="0" type="line"/>
      <point x="424" y="0" type="line"/>
      <point x="502" y="315" type="line"/>
      <point x="92" y="315" type="line"/>
      <point x="117" y="408" type="line"/>
      <point x="524" y="408" type="line"/>
      <point x="565" y="567" type="line"/>
      <point x="526" y="692" type="line"/>
      <point x="186" y="692" type="line"/>
      <point x="209" y="782" type="line"/>
      <point x="498" y="782" type="line"/>
      <point x="283" y="1475" type="line"/>
      <point x="432" y="1475" type="line"/>
      <point x="659" y="682" type="line"/>
    </contour>
  </outline>
</glyph>
<glyph name="dieresis" format="1">
  <advance width="1024.0"/>
  <unicode hex="00A8"/>
  <outline>
    <contour>
      <point x="467" y="1391" type="line"/>
      <point x="616" y="1391" type="line"/>
      <point x="573" y="1212" type="line"/>
      <point x="424" y="1212" type="line"/>
    </contour>
    <contour>
      <point x="831" y="1391" type="line"/>
      <point x="981" y="1391" type="line"/>
      <point x="938" y="1212" type="line"/>
      <point x="788" y="1212" type="line"/>
    </contour>
  </outline>
</glyph>
<glyph name="copyright" format="1">
  <advance width="1710.08"/>
  <unicode hex="00A9"/>
  <outline>
    <contour>
      <point x="1083" y="616" type="qcurve"/>
      <point x="1186" y="588" type="line"/>
      <point x="1156.89552239" y="465.611940299"/>
      <point x="1020.40298507" y="322.0"/>
      <point x="901" y="322" type="qcurve" smooth="yes"/>
      <point x="762.194029851" y="322.0"/>
      <point x="598.0" y="546.462686567"/>
      <point x="598" y="739" type="qcurve" smooth="yes"/>
      <point x="598" y="754" type="line" smooth="yes"/>
      <point x="598.0" y="946.537313433"/>
      <point x="761.208955224" y="1171.0"/>
      <point x="903" y="1171" type="qcurve" smooth="yes"/>
      <point x="1017.92537313" y="1171.0"/>
      <point x="1152.89552239" y="1041.1641791"/>
      <point x="1182" y="924" type="qcurve"/>
      <point x="1077" y="895" type="line"/>
      <point x="1052.37313433" y="988.28358209"/>
      <point x="971.656716418" y="1081.0"/>
      <point x="903" y="1081" type="qcurve" smooth="yes"/>
      <point x="803.746268657" y="1081.0"/>
      <point x="711.0" y="899.313432836"/>
      <point x="711" y="762" type="qcurve" smooth="yes"/>
      <point x="711" y="735" type="line" smooth="yes"/>
      <point x="711.0" y="597.686567164"/>
      <point x="803.746268657" y="414.0"/>
      <point x="903" y="414" type="qcurve" smooth="yes"/>
      <point x="976.134328358" y="414.0"/>
      <point x="1062.10447761" y="518.23880597"/>
    </contour>
    <contour>
      <point x="907" y="1499" type="qcurve" smooth="yes"/>
      <point x="1229.3880597" y="1499.0"/>
      <point x="1669.0" y="1059.3880597"/>
      <point x="1669" y="737" type="qcurve" smooth="yes"/>
      <point x="1669.0" y="416.104477612"/>
      <point x="1227.89552239" y="-25.0"/>
      <point x="907" y="-25" type="qcurve" smooth="yes"/>
      <point x="584.611940299" y="-25.0"/>
      <point x="145.0" y="414.611940299"/>
      <point x="145" y="737" type="qcurve" smooth="yes"/>
      <point x="145.0" y="1057.89552239"/>
      <point x="584.611940299" y="1499.0"/>
    </contour>
    <contour>
      <point x="907" y="41" type="qcurve" smooth="yes"/>
      <point x="1202.52238806" y="41.0"/>
      <point x="1595.0" y="442.223880597"/>
      <point x="1595" y="737" type="qcurve" smooth="yes"/>
      <point x="1595.0" y="1032.52238806"/>
      <point x="1202.52238806" y="1434.0"/>
      <point x="907" y="1434" type="qcurve" smooth="yes"/>
      <point x="612.223880597" y="1434.0"/>
      <point x="219.0" y="1032.52238806"/>
      <point x="219" y="737" type="qcurve" smooth="yes"/>
      <point x="219.0" y="442.223880597"/>
      <point x="612.223880597" y="41.0"/>
    </contour>
  </outline>
</glyph>
<glyph name="ordfeminine" format="1">
  <advance width="774.144"/>
  <unicode hex="00AA"/>
  <outline>
    <contour>
      <point x="590" y="1485" type="qcurve" smooth="yes"/>
      <point x="693.731343284" y="1485.0"/>
      <point x="799.0" y="1408.40298507"/>
      <point x="799" y="1339" type="qcurve" smooth="yes"/>
      <point x="799.0" y="1319.59701493"/>
      <point x="790.71641791" y="1271.62686567"/>
      <point x="784" y="1247" type="qcurve" smooth="yes"/>
      <point x="700" y="918" type="line" smooth="yes"/>
      <point x="697.014925373" y="908.298507463"/>
      <point x="696.0" y="887.955223881"/>
      <point x="696" y="879" type="qcurve" smooth="yes"/>
      <point x="696.0" y="857.358208955"/>
      <point x="726.417910448" y="829.47761194"/>
      <point x="760" y="825" type="qcurve"/>
      <point x="745" y="764" type="line"/>
      <point x="670.373134328" y="768.47761194"/>
      <point x="595.492537313" y="832.253731343"/>
      <point x="594" y="883" type="qcurve"/>
      <point x="526.835820896" y="817.328358209"/>
      <point x="410.179104478" y="760.0"/>
      <point x="346" y="760" type="qcurve" smooth="yes"/>
      <point x="275.850746269" y="760.0"/>
      <point x="182.0" y="842.626865672"/>
      <point x="182" y="918" type="qcurve" smooth="yes"/>
      <point x="182.0" y="1038.14925373"/>
      <point x="414.268656716" y="1192.0"/>
      <point x="668" y="1192" type="qcurve"/>
      <point x="682" y="1251" type="line" smooth="yes"/>
      <point x="686.47761194" y="1272.64179104"/>
      <point x="694.0" y="1304.82089552"/>
      <point x="694" y="1319" type="qcurve" smooth="yes"/>
      <point x="694.0" y="1363.02985075"/>
      <point x="629.686567164" y="1405.0"/>
      <point x="567" y="1405" type="qcurve" smooth="yes"/>
      <point x="515.507462687" y="1405.0"/>
      <point x="411.701492537" y="1376.86567164"/>
      <point x="352" y="1350" type="qcurve"/>
      <point x="330" y="1425" type="line"/>
      <point x="394.179104478" y="1454.10447761"/>
      <point x="519.850746269" y="1485.0"/>
    </contour>
    <contour>
      <point x="608" y="958" type="qcurve"/>
      <point x="653" y="1137" type="line"/>
      <point x="441.059701493" y="1135.50746269"/>
      <point x="283.0" y="1013.10447761"/>
      <point x="283" y="934" type="qcurve" smooth="yes"/>
      <point x="283.0" y="886.23880597"/>
      <point x="343.0" y="834.0"/>
      <point x="393" y="834" type="qcurve" smooth="yes"/>
      <point x="434.791044776" y="834.0"/>
      <point x="546.805970149" y="893.820895522"/>
    </contour>
    <contour>
      <point x="123" y="602" type="line"/>
      <point x="686" y="602" type="line"/>
      <point x="666" y="526" type="line"/>
      <point x="102" y="526" type="line"/>
    </contour>
  </outline>
</glyph>
<glyph name="guillemotleft" format="1">
  <advance width="933.888"/>
  <unicode hex="00AB"/>
  <outline>
    <contour>
      <point x="469" y="899" type="line"/>
      <point x="567" y="899" type="line"/>
      <point x="213" y="520" type="line"/>
      <point x="375" y="160" type="line"/>
      <point x="289" y="160" type="line"/>
      <point x="57" y="528" type="line"/>
    </contour>
    <contour>
      <point x="862" y="899" type="line"/>
      <point x="961" y="899" type="line"/>
      <point x="606" y="520" type="line"/>
      <point x="768" y="160" type="line"/>
      <point x="682" y="160" type="line"/>
      <point x="451" y="528" type="line"/>
    </contour>
  </outline>
</glyph>
<glyph name="uni00AE" format="1">
  <advance width="1710.08"/>
  <unicode hex="00AE"/>
  <outline>
    <contour>
      <point x="999" y="700" type="qcurve"/>
      <point x="1243" y="332" type="line"/>
      <point x="1114" y="332" type="line"/>
      <point x="881" y="690" type="line"/>
      <point x="768" y="690" type="line"/>
      <point x="768" y="332" type="line"/>
      <point x="655" y="332" type="line"/>
      <point x="655" y="1163" type="line"/>
      <point x="926" y="1163" type="line" smooth="yes"/>
      <point x="1054.35820896" y="1163.0"/>
      <point x="1208.0" y="1044.17910448"/>
      <point x="1208" y="930" type="qcurve" smooth="yes"/>
      <point x="1208.0" y="832.23880597"/>
      <point x="1093.7761194" y="717.164179104"/>
    </contour>
    <contour>
      <point x="907" y="1499" type="qcurve" smooth="yes"/>
      <point x="1229.3880597" y="1499.0"/>
      <point x="1669.0" y="1059.3880597"/>
      <point x="1669" y="737" type="qcurve" smooth="yes"/>
      <point x="1669.0" y="416.104477612"/>
      <point x="1227.89552239" y="-25.0"/>
      <point x="907" y="-25" type="qcurve" smooth="yes"/>
      <point x="584.611940299" y="-25.0"/>
      <point x="145.0" y="414.611940299"/>
      <point x="145" y="737" type="qcurve" smooth="yes"/>
      <point x="145.0" y="1057.89552239"/>
      <point x="584.611940299" y="1499.0"/>
    </contour>
    <contour>
      <point x="907" y="41" type="qcurve" smooth="yes"/>
      <point x="1202.52238806" y="41.0"/>
      <point x="1595.0" y="442.223880597"/>
      <point x="1595" y="737" type="qcurve" smooth="yes"/>
      <point x="1595.0" y="1032.52238806"/>
      <point x="1202.52238806" y="1434.0"/>
      <point x="907" y="1434" type="qcurve" smooth="yes"/>
      <point x="612.223880597" y="1434.0"/>
      <point x="219.0" y="1032.52238806"/>
      <point x="219" y="737" type="qcurve" smooth="yes"/>
      <point x="219.0" y="442.223880597"/>
      <point x="612.223880597" y="41.0"/>
    </contour>
    <contour>
      <point x="920" y="780" type="line" smooth="yes"/>
      <point x="1003.58208955" y="780.0"/>
      <point x="1094.0" y="851.134328358"/>
      <point x="1094" y="928" type="qcurve" smooth="yes"/>
      <point x="1094.0" y="998.149253731"/>
      <point x="1003.80597015" y="1073.0"/>
      <point x="915" y="1073" type="qcurve" smooth="yes"/>
      <point x="768" y="1073" type="line"/>
      <point x="768" y="780" type="line"/>
    </contour>
  </outline>
</glyph>
<glyph name="degree" format="1">
  <advance width="819.2"/>
  <unicode hex="00B0"/>
  <outline>
    <contour>
      <point x="522" y="1483" type="qcurve" smooth="yes"/>
      <point x="650.358208955" y="1483.0"/>
      <point x="825.0" y="1313.85074627"/>
      <point x="825" y="1184" type="qcurve" smooth="yes"/>
      <point x="825.0" y="1054.14925373"/>
      <point x="650.358208955" y="885.0"/>
      <point x="522" y="885" type="qcurve" smooth="yes"/>
      <point x="392.149253731" y="885.0"/>
      <point x="217.0" y="1054.14925373"/>
      <point x="217" y="1184" type="qcurve" smooth="yes"/>
      <point x="217.0" y="1313.85074627"/>
      <point x="392.149253731" y="1483.0"/>
    </contour>
    <contour>
      <point x="522" y="965" type="qcurve" smooth="yes"/>
      <point x="612.298507463" y="965.0"/>
      <point x="731.0" y="1089.2238806"/>
      <point x="731" y="1184" type="qcurve" smooth="yes"/>
      <point x="731.0" y="1278.7761194"/>
      <point x="612.298507463" y="1401.0"/>
      <point x="522" y="1401" type="qcurve" smooth="yes"/>
      <point x="430.208955224" y="1401.0"/>
      <point x="311.0" y="1278.7761194"/>
      <point x="311" y="1184" type="qcurve" smooth="yes"/>
      <point x="311.0" y="1089.2238806"/>
      <point x="430.208955224" y="965.0"/>
    </contour>
  </outline>
</glyph>
<glyph name="cedilla" format="1">
  <advance width="1024.0"/>
  <unicode hex="00B8"/>
  <outline>
    <contour>
      <point x="440" y="-109" type="qcurve" smooth="yes"/>
      <point x="496.71641791" y="-109.0"/>
      <point x="569.0" y="-161.746268657"/>
      <point x="569" y="-211" type="qcurve" smooth="yes"/>
      <point x="569.0" y="-296.820895522"/>
      <point x="389.253731343" y="-389.0"/>
      <point x="240" y="-389" type="qcurve" smooth="yes"/>
      <point x="204.925373134" y="-389.0"/>
      <point x="125.074626866" y="-385.47761194"/>
      <point x="90" y="-381" type="qcurve"/>
      <point x="104" y="-332" type="line"/>
      <point x="130.119402985" y="-334.985074627"/>
      <point x="183.865671642" y="-340.0"/>
      <point x="207" y="-340" type="qcurve" smooth="yes"/>
      <point x="329.388059701" y="-340.0"/>
      <point x="453.0" y="-284.029850746"/>
      <point x="453" y="-240" type="qcurve" smooth="yes"/>
      <point x="453.0" y="-210.895522388"/>
      <point x="410.074626866" y="-180.0"/>
      <point x="375" y="-180" type="qcurve" smooth="yes"/>
      <point x="345.895522388" y="-180.0"/>
      <point x="292.089552239" y="-192.313432836"/>
      <point x="260" y="-205" type="qcurve"/>
      <point x="221" y="-174" type="line"/>
      <point x="375" y="0" type="line"/>
      <point x="453" y="0" type="line"/>
      <point x="348" y="-121" type="line"/>
      <point x="369.641791045" y="-115.029850746"/>
      <point x="416.119402985" y="-109.0"/>
    </contour>
  </outline>
</glyph>
<glyph name="Ccedilla" format="1">
  <advance width="1177.6"/>
  <unicode hex="00C7"/>
  <outline>
    <contour>
      <point x="825" y="1499" type="qcurve" smooth="yes"/>
      <point x="1024.25373134" y="1499.0"/>
      <point x="1214.71641791" y="1254.68656716"/>
      <point x="1208" y="1042" type="qcurve"/>
      <point x="1071" y="1014" type="line"/>
      <point x="1072.49253731" y="1190.86567164"/>
      <point x="948.820895522" y="1384.0"/>
      <point x="813" y="1384" type="qcurve" smooth="yes"/>
      <point x="639.119402985" y="1384.0"/>
      <point x="380.194029851" y="1034.10447761"/>
      <point x="319" y="805" type="qcurve" smooth="yes"/>
      <point x="295.119402985" y="714.701492537"/>
      <point x="270.0" y="549.119402985"/>
      <point x="270" y="473" type="qcurve" smooth="yes"/>
      <point x="270" y="469" type="line" smooth="yes"/>
      <point x="270.0" y="311.537313433"/>
      <point x="402.970149254" y="90.0"/>
      <point x="547" y="90" type="qcurve" smooth="yes"/>
      <point x="673.865671642" y="90.0"/>
      <point x="861.373134328" y="271.552238806"/>
      <point x="936" y="432" type="qcurve"/>
      <point x="1063" y="387" type="line"/>
      <point x="971.208955224" y="191.47761194"/>
      <point x="717.388059701" y="-19.776119403"/>
      <point x="545" y="-25" type="qcurve"/>
      <point x="463" y="-121" type="line"/>
      <point x="484.641791045" y="-115.029850746"/>
      <point x="529.865671642" y="-109.0"/>
      <point x="553" y="-109" type="qcurve" smooth="yes"/>
      <point x="609.71641791" y="-109.0"/>
      <point x="684.0" y="-161.746268657"/>
      <point x="684" y="-211" type="qcurve" smooth="yes"/>
      <point x="684.0" y="-296.820895522"/>
      <point x="503.492537313" y="-389.0"/>
      <point x="352" y="-389" type="qcurve" smooth="yes"/>
      <point x="316.925373134" y="-389.0"/>
      <point x="240.074626866" y="-385.47761194"/>
      <point x="205" y="-381" type="qcurve"/>
      <point x="217" y="-332" type="line"/>
      <point x="244.611940299" y="-334.985074627"/>
      <point x="298.865671642" y="-340.0"/>
      <point x="322" y="-340" type="qcurve" smooth="yes"/>
      <point x="443.641791045" y="-340.0"/>
      <point x="565.0" y="-284.029850746"/>
      <point x="565" y="-240" type="qcurve" smooth="yes"/>
      <point x="565.0" y="-210.895522388"/>
      <point x="524.313432836" y="-180.0"/>
      <point x="487" y="-180" type="qcurve" smooth="yes"/>
      <point x="460.134328358" y="-180.0"/>
      <point x="405.597014925" y="-192.313432836"/>
      <point x="375" y="-205" type="qcurve"/>
      <point x="336" y="-174" type="line"/>
      <point x="471" y="-20" type="line"/>
      <point x="304.582089552" y="-0.597014925373"/>
      <point x="125.0" y="260.791044776"/>
      <point x="125" y="469" type="qcurve" smooth="yes"/>
      <point x="125" y="475" type="line" smooth="yes"/>
      <point x="125.0" y="542.164179104"/>
      <point x="141.343283582" y="680.149253731"/>
      <point x="160" y="760" type="qcurve" smooth="yes"/>
      <point x="225.671641791" y="1059.25373134"/>
      <point x="571.268656716" y="1499.0"/>
    </contour>
  </outline>
</glyph>
<glyph name="multiply" format="1">
  <advance width="1228.8"/>
  <unicode hex="00D7"/>
  <outline>
    <contour>
      <point x="745" y="727" type="line"/>
      <point x="1135" y="344" type="line"/>
      <point x="1049" y="256" type="line"/>
      <point x="664" y="647" type="line"/>
      <point x="281" y="256" type="line"/>
      <point x="195" y="344" type="line"/>
      <point x="584" y="727" type="line"/>
      <point x="195" y="1110" type="line"/>
      <point x="281" y="1198" type="line"/>
      <point x="664" y="807" type="line"/>
      <point x="1049" y="1198" type="line"/>
      <point x="1135" y="1110" type="line"/>
    </contour>
  </outline>
</glyph>
<glyph name="Oslash" format="1">
  <advance width="1255.424"/>
  <unicode hex="00D8"/>
  <outline>
    <contour>
      <point x="1327" y="1673" type="line"/>
      <point x="1432" y="1673" type="line"/>
      <point x="1161" y="1315" type="line"/>
      <point x="1197.56716418" y="1255.29850746"/>
      <point x="1235.0" y="1098.53731343"/>
      <point x="1235" y="1006" type="qcurve" smooth="yes"/>
      <point x="1235" y="999" type="line" smooth="yes"/>
      <point x="1235.0" y="925.865671642"/>
      <point x="1214.65671642" y="773.850746269"/>
      <point x="1196" y="694" type="qcurve" smooth="yes"/>
      <point x="1131.82089552" y="403.701492537"/>
      <point x="787.507462687" y="-25.0"/>
      <point x="539" y="-25" type="qcurve" smooth="yes"/>
      <point x="447.208955224" y="-25.0"/>
      <point x="299.492537313" y="35.7910447761"/>
      <point x="248" y="94" type="qcurve"/>
      <point x="33" y="-195" type="line"/>
      <point x="-70" y="-195" type="line"/>
      <point x="199" y="158" type="line"/>
      <point x="163.925373134" y="219.194029851"/>
      <point x="125.0" y="375.71641791"/>
      <point x="125" y="469" type="qcurve" smooth="yes"/>
      <point x="125" y="475" type="line" smooth="yes"/>
      <point x="125.0" y="548.134328358"/>
      <point x="143.343283582" y="700.895522388"/>
      <point x="162" y="780" type="qcurve" smooth="yes"/>
      <point x="226.179104478" y="1070.29850746"/>
      <point x="571.746268657" y="1499.0"/>
      <point x="821" y="1499" type="qcurve" smooth="yes"/>
      <point x="912.791044776" y="1499.0"/>
      <point x="1059.76119403" y="1438.71641791"/>
      <point x="1112" y="1382" type="qcurve"/>
    </contour>
    <contour>
      <point x="291" y="276" type="qcurve"/>
      <point x="1030" y="1272" type="line"/>
      <point x="996.417910448" y="1324.98507463"/>
      <point x="885.626865672" y="1389.0"/>
      <point x="811" y="1389" type="qcurve" smooth="yes"/>
      <point x="638.611940299" y="1389.0"/>
      <point x="376.194029851" y="1048.6119403"/>
      <point x="315" y="821" type="qcurve" smooth="yes"/>
      <point x="289.626865672" y="726.223880597"/>
      <point x="262.0" y="548.611940299"/>
      <point x="262" y="471" type="qcurve" smooth="yes"/>
      <point x="262" y="467" type="line" smooth="yes"/>
      <point x="262.0" y="414.76119403"/>
      <point x="276.820895522" y="319.28358209"/>
    </contour>
    <contour>
      <point x="1042" y="653" type="qcurve" smooth="yes"/>
      <point x="1066.62686567" y="747.776119403"/>
      <point x="1096.0" y="925.641791045"/>
      <point x="1096" y="1004" type="qcurve" smooth="yes"/>
      <point x="1096" y="1008" type="line" smooth="yes"/>
      <point x="1096.0" y="1059.49253731"/>
      <point x="1081.92537313" y="1154.95522388"/>
      <point x="1067" y="1196" type="qcurve"/>
      <point x="328" y="201" type="line"/>
      <point x="363.074626866" y="147.268656716"/>
      <point x="474.373134328" y="86.0"/>
      <point x="549" y="86" type="qcurve" smooth="yes"/>
      <point x="721.388059701" y="86.0"/>
      <point x="981.552238806" y="425.388059701"/>
    </contour>
  </outline>
</glyph>
<glyph name="Thorn" format="1">
  <advance width="1161.216"/>
  <unicode hex="00DE"/>
  <outline>
    <contour>
      <point x="717" y="1182" type="line" smooth="yes"/>
      <point x="921.47761194" y="1182.0"/>
      <point x="1145.0" y="1003.40298507"/>
      <point x="1145" y="834" type="qcurve" smooth="yes"/>
      <point x="1145.0" y="607.134328358"/>
      <point x="808.701492537" y="334.0"/>
      <point x="549" y="334" type="qcurve" smooth="yes"/>
      <point x="268" y="334" type="line"/>
      <point x="186" y="0" type="line"/>
      <point x="39" y="0" type="line"/>
      <point x="408" y="1475" type="line"/>
      <point x="553" y="1475" type="line"/>
      <point x="479" y="1182" type="line"/>
    </contour>
    <contour>
      <point x="541" y="446" type="line" smooth="yes"/>
      <point x="745.47761194" y="446.0"/>
      <point x="999.0" y="646.134328358"/>
      <point x="999" y="823" type="qcurve" smooth="yes"/>
      <point x="999.0" y="940.910447761"/>
      <point x="847.970149254" y="1071.0"/>
      <point x="692" y="1071" type="qcurve" smooth="yes"/>
      <point x="449" y="1071" type="line"/>
      <point x="293" y="446" type="line"/>
    </contour>
  </outline>
</glyph>
<glyph name="oslash" format="1">
  <advance width="991.232"/>
  <unicode hex="00F8"/>
  <outline>
    <contour>
      <point x="997" y="1253" type="line"/>
      <point x="1090" y="1253" type="line"/>
      <point x="860" y="952" type="line"/>
      <point x="890.597014925" y="907.970149254"/>
      <point x="924.0" y="787.626865672"/>
      <point x="924" y="713" type="qcurve" smooth="yes"/>
      <point x="924" y="709" type="line" smooth="yes"/>
      <point x="924.0" y="658.253731343"/>
      <point x="910.432835821" y="546.47761194"/>
      <point x="897" y="492" type="qcurve" smooth="yes"/>
      <point x="846.253731343" y="285.28358209"/>
      <point x="585.537313433" y="-20.0"/>
      <point x="393" y="-20" type="qcurve" smooth="yes"/>
      <point x="328.820895522" y="-20.0"/>
      <point x="221.28358209" y="16.4328358209"/>
      <point x="178" y="53" type="qcurve"/>
      <point x="-6" y="-195" type="line"/>
      <point x="-98" y="-195" type="line"/>
      <point x="131" y="104" type="line"/>
      <point x="100.402985075" y="148.776119403"/>
      <point x="68.0" y="269.373134328"/>
      <point x="68" y="344" type="qcurve" smooth="yes"/>
      <point x="68" y="348" type="line" smooth="yes"/>
      <point x="68.0" y="400.23880597"/>
      <point x="80.5671641791" y="512.52238806"/>
      <point x="94" y="567" type="qcurve" smooth="yes"/>
      <point x="144.746268657" y="773.71641791"/>
      <point x="405.462686567" y="1079.0"/>
      <point x="598" y="1079" type="qcurve" smooth="yes"/>
      <point x="662.179104478" y="1079.0"/>
      <point x="769.955223881" y="1042.56716418"/>
      <point x="811" y="1006" type="qcurve"/>
    </contour>
    <contour>
      <point x="762" y="469" type="qcurve" smooth="yes"/>
      <point x="778.417910448" y="533.179104478"/>
      <point x="797.0" y="654.28358209"/>
      <point x="797" y="711" type="qcurve" smooth="yes"/>
      <point x="797" y="715" type="line" smooth="yes"/>
      <point x="797.0" y="756.044776119"/>
      <point x="787.194029851" y="824.895522388"/>
      <point x="776" y="854" type="qcurve"/>
      <point x="246" y="143" type="line"/>
      <point x="272.119402985" y="106.432835821"/>
      <point x="349.985074627" y="70.0"/>
      <point x="397" y="70" type="qcurve" smooth="yes"/>
      <point x="532.074626866" y="70.0"/>
      <point x="719.462686567" y="305.567164179"/>
    </contour>
    <contour>
      <point x="213" y="207" type="qcurve"/>
      <point x="745" y="918" type="line"/>
      <point x="719.626865672" y="953.074626866"/>
      <point x="641.014925373" y="989.0"/>
      <point x="594" y="989" type="qcurve" smooth="yes"/>
      <point x="459.671641791" y="989.0"/>
      <point x="270.791044776" y="753.432835821"/>
      <point x="229" y="590" type="qcurve" smooth="yes"/>
      <point x="212.582089552" y="525.820895522"/>
      <point x="195.0" y="402.71641791"/>
      <point x="195" y="346" type="qcurve" smooth="yes"/>
      <point x="195" y="342" type="line" smooth="yes"/>
      <point x="195.0" y="302.447761194"/>
      <point x="204.044776119" y="234.611940299"/>
    </contour>
  </outline>
</glyph>
<glyph name="lslash" format="1">
  <advance width="604.16"/>
  <unicode hex="0142"/>
  <outline>
    <contour>
      <point x="446" y="844" type="line"/>
      <point x="645" y="928" type="line"/>
      <point x="614" y="807" type="line"/>
      <point x="416" y="723" type="line"/>
      <point x="238" y="0" type="line"/>
      <point x="104" y="0" type="line"/>
      <point x="270" y="668" type="line"/>
      <point x="72" y="584" type="line"/>
      <point x="102" y="705" type="line"/>
      <point x="301" y="786" type="line"/>
      <point x="479" y="1511" type="line"/>
      <point x="623" y="1559" type="line"/>
    </contour>
  </outline>
</glyph>
<glyph name="OE" format="1">
  <advance width="1814.528"/>
  <unicode hex="0152"/>
  <outline>
    <contour>
      <point x="977" y="1475" type="qcurve" smooth="yes"/>
      <point x="1946" y="1475" type="line"/>
      <point x="1917" y="1358" type="line"/>
      <point x="1253" y="1358" type="line"/>
      <point x="1120" y="827" type="line"/>
      <point x="1665" y="827" type="line"/>
      <point x="1638" y="715" type="line"/>
      <point x="1094" y="715" type="line"/>
      <point x="944" y="117" type="line"/>
      <point x="1632" y="117" type="line"/>
      <point x="1604" y="0" type="line"/>
      <point x="676" y="0" type="line" smooth="yes"/>
      <point x="438.686567164" y="0.0"/>
      <point x="133.0" y="256.328358209"/>
      <point x="133" y="522" type="qcurve" smooth="yes"/>
      <point x="133" y="528" type="line" smooth="yes"/>
      <point x="133.0" y="593.671641791"/>
      <point x="145.820895522" y="711.313432836"/>
      <point x="160" y="774" type="qcurve" smooth="yes"/>
      <point x="236.119402985" y="1106.08955224"/>
      <point x="685.208955224" y="1475.0"/>
    </contour>
    <contour>
      <point x="801" y="115" type="line"/>
      <point x="1110" y="1360" type="line"/>
      <point x="967" y="1360" type="line" smooth="yes"/>
      <point x="742.373134328" y="1360.0"/>
      <point x="384.402985075" y="1062.67164179"/>
      <point x="315" y="797" type="qcurve" smooth="yes"/>
      <point x="300.074626866" y="738.791044776"/>
      <point x="283.0" y="601.179104478"/>
      <point x="283" y="537" type="qcurve" smooth="yes"/>
      <point x="283" y="530" type="line" smooth="yes"/>
      <point x="283.0" y="324.029850746"/>
      <point x="510.656716418" y="115.0"/>
      <point x="692" y="115" type="qcurve" smooth="yes"/>
    </contour>
  </outline>
</glyph>
<glyph name="florin" format="1">
  <advance width="851.968"/>
  <unicode hex="0192"/>
  <outline>
    <contour>
      <point x="770" y="1487" type="qcurve" smooth="yes"/>
      <point x="829.701492537" y="1487.0"/>
      <point x="933.447761194" y="1461.91044776"/>
      <point x="973" y="1444" type="qcurve"/>
      <point x="944" y="1333" type="line"/>
      <point x="911.910447761" y="1353.14925373"/>
      <point x="828.208955224" y="1384.0"/>
      <point x="770" y="1384" type="qcurve" smooth="yes"/>
      <point x="707.313432836" y="1384.0"/>
      <point x="621.134328358" y="1304.7761194"/>
      <point x="598" y="1210" type="qcurve" smooth="yes"/>
      <point x="530" y="938" type="line"/>
      <point x="793" y="938" type="line"/>
      <point x="768" y="836" type="line"/>
      <point x="506" y="836" type="line"/>
      <point x="256" y="-170" type="line" smooth="yes"/>
      <point x="225.402985075" y="-295.373134328"/>
      <point x="79.2537313433" y="-389.0"/>
      <point x="-20" y="-389" type="qcurve" smooth="yes"/>
      <point x="-63.2835820896" y="-389.0"/>
      <point x="-136.925373134" y="-372.179104478"/>
      <point x="-172" y="-358" type="qcurve"/>
      <point x="-145" y="-258" type="line"/>
      <point x="-119.626865672" y="-271.432835821"/>
      <point x="-63.0895522388" y="-289.0"/>
      <point x="-31" y="-289" type="qcurve" smooth="yes"/>
      <point x="31.6865671642" y="-289.0"/>
      <point x="104.343283582" y="-223.134328358"/>
      <point x="123" y="-150" type="qcurve" smooth="yes"/>
      <point x="369" y="836" type="line"/>
      <point x="158" y="836" type="line"/>
      <point x="182" y="938" type="line"/>
      <point x="393" y="938" type="line"/>
      <point x="463" y="1221" type="line" smooth="yes"/>
      <point x="498.074626866" y="1361.29850746"/>
      <point x="653.582089552" y="1487.0"/>
    </contour>
  </outline>
</glyph>
<glyph name="circumflex" format="1">
  <advance width="1024.0"/>
  <unicode hex="02C6"/>
  <outline>
    <contour>
      <point x="821" y="1528" type="line"/>
      <point x="993" y="1204" type="line"/>
      <point x="924" y="1204" type="line"/>
      <point x="739" y="1423" type="line"/>
      <point x="449" y="1204" type="line"/>
      <point x="365" y="1204" type="line"/>
      <point x="698" y="1528" type="line"/>
    </contour>
  </outline>
</glyph>
<glyph name="tilde" format="1">
  <advance width="1024.0"/>
  <unicode hex="02DC"/>
  <outline>
    <contour>
      <point x="973" y="1434" type="qcurve"/>
      <point x="1051" y="1434" type="line"/>
      <point x="1030.85074627" y="1322.05970149"/>
      <point x="931.313432836" y="1214.0"/>
      <point x="844" y="1214" type="qcurve" smooth="yes"/>
      <point x="752.208955224" y="1214.0"/>
      <point x="618.194029851" y="1333.0"/>
      <point x="557" y="1333" type="qcurve" smooth="yes"/>
      <point x="512.970149254" y="1333.0"/>
      <point x="461.671641791" y="1276.46268657"/>
      <point x="446" y="1219" type="qcurve"/>
      <point x="369" y="1219" type="line"/>
      <point x="388.402985075" y="1330.19402985"/>
      <point x="486.940298507" y="1438.0"/>
      <point x="575" y="1438" type="qcurve" smooth="yes"/>
      <point x="666.791044776" y="1438.0"/>
      <point x="800.805970149" y="1319.0"/>
      <point x="862" y="1319" type="qcurve" smooth="yes"/>
      <point x="906.776119403" y="1319.0"/>
      <point x="957.328358209" y="1375.79104478"/>
    </contour>
  </outline>
</glyph>
<glyph name="endash" format="1">
  <advance width="1024.0"/>
  <unicode hex="2013"/>
  <outline>
    <contour>
      <point x="104" y="635" type="line"/>
      <point x="971" y="635" type="line"/>
      <point x="940" y="514" type="line"/>
      <point x="74" y="514" type="line"/>
    </contour>
  </outline>
</glyph>
<glyph name="emdash" format="1">
  <advance width="2048.0"/>
  <unicode hex="2014"/>
  <outline>
    <contour>
      <point x="104" y="635" type="line"/>
      <point x="1995" y="635" type="line"/>
      <point x="1964" y="514" type="line"/>
      <point x="74" y="514" type="line"/>
    </contour>
  </outline>
</glyph>
<glyph name="quoteleft" format="1">
  <advance width="380.928"/>
  <unicode hex="2018"/>
  <unicode hex="02BB"/>
  <outline>
    <contour>
      <point x="303" y="1475" type="line"/>
      <point x="457" y="1475" type="line"/>
      <point x="428" y="1034" type="line"/>
      <point x="346" y="1034" type="line"/>
    </contour>
  </outline>
</glyph>
<glyph name="quotesinglbase" format="1">
  <advance width="380.928"/>
  <unicode hex="201A"/>
  <outline>
    <contour>
      <point x="53" y="197" type="line"/>
      <point x="225" y="197" type="line"/>
      <point x="-39" y="-244" type="line"/>
      <point x="-133" y="-244" type="line"/>
    </contour>
  </outline>
</glyph>
<glyph name="quotedblleft" format="1">
  <advance width="684.032"/>
  <unicode hex="201C"/>
  <outline>
    <contour>
      <point x="303" y="1475" type="line"/>
      <point x="455" y="1475" type="line"/>
      <point x="426" y="1034" type="line"/>
      <point x="346" y="1034" type="line"/>
    </contour>
    <contour>
      <point x="602" y="1475" type="line"/>
      <point x="756" y="1475" type="line"/>
      <point x="727" y="1034" type="line"/>
      <point x="647" y="1034" type="line"/>
    </contour>
  </outline>
</glyph>
<glyph name="quotedblbase" format="1">
  <advance width="684.032"/>
  <unicode hex="201E"/>
  <outline>
    <contour>
      <point x="53" y="197" type="line"/>
      <point x="223" y="197" type="line"/>
      <point x="-41" y="-244" type="line"/>
      <point x="-133" y="-244" type="line"/>
    </contour>
    <contour>
      <point x="358" y="197" type="line"/>
      <point x="528" y="197" type="line"/>
      <point x="264" y="-244" type="line"/>
      <point x="172" y="-244" type="line"/>
    </contour>
  </outline>
</glyph>
<glyph name="dagger" format="1">
  <advance width="886.784"/>
  <unicode hex="2020"/>
  <outline>
    <contour>
      <point x="610" y="1036" type="line"/>
      <point x="956" y="1073" type="line"/>
      <point x="926" y="952" type="line"/>
      <point x="598" y="987" type="line"/>
      <point x="563" y="707" type="line"/>
      <point x="340" y="0" type="line"/>
      <point x="283" y="0" type="line"/>
      <point x="410" y="707" type="line"/>
      <point x="516" y="987" type="line"/>
      <point x="170" y="952" type="line"/>
      <point x="199" y="1073" type="line"/>
      <point x="526" y="1036" type="line"/>
      <point x="600" y="1475" type="line"/>
      <point x="756" y="1475" type="line"/>
    </contour>
  </outline>
</glyph>
<glyph name="fraction" format="1">
  <advance width="757.76"/>
  <unicode hex="2044"/>
  <outline>
    <contour>
      <point x="915" y="1505" type="line"/>
      <point x="1053" y="1505" type="line"/>
      <point x="-55" y="-31" type="line"/>
      <point x="-193" y="-31" type="line"/>
    </contour>
  </outline>
</glyph>
<glyph name="Euro" format="1">
  <advance width="1179.648"/>
  <unicode hex="20AC"/>
  <outline>
    <contour>
      <point x="825" y="1499" type="qcurve" smooth="yes"/>
      <point x="1011.56716418" y="1499.0"/>
      <point x="1204.31343284" y="1278.76119403"/>
      <point x="1217" y="1081" type="qcurve"/>
      <point x="1098" y="1030" type="line"/>
      <point x="1086.80597015" y="1203.13432836"/>
      <point x="954.313432836" y="1391.0"/>
      <point x="817" y="1391" type="qcurve" smooth="yes"/>
      <point x="661.029850746" y="1391.0"/>
      <point x="418.656716418" y="1121.55223881"/>
      <point x="350" y="932" type="qcurve"/>
      <point x="823" y="932" type="line"/>
      <point x="801" y="840" type="line"/>
      <point x="322" y="840" type="line"/>
      <point x="304.835820896" y="781.791044776"/>
      <point x="280.71641791" y="667.731343284"/>
      <point x="274" y="614" type="qcurve"/>
      <point x="743" y="614" type="line"/>
      <point x="723" y="522" type="line"/>
      <point x="266" y="522" type="line"/>
      <point x="264.507462687" y="510.059701493"/>
      <point x="264.0" y="487.686567164"/>
      <point x="264" y="475" type="qcurve" smooth="yes"/>
      <point x="264" y="471" type="line" smooth="yes"/>
      <point x="264.0" y="310.552238806"/>
      <point x="401.507462687" y="84.0"/>
      <point x="553" y="84" type="qcurve" smooth="yes"/>
      <point x="679.865671642" y="84.0"/>
      <point x="878.164179104" y="259.52238806"/>
      <point x="961" y="414" type="qcurve"/>
      <point x="1055" y="348" type="line"/>
      <point x="957.23880597" y="169.641791045"/>
      <point x="700.940298507" y="-25.0"/>
      <point x="539" y="-25" type="qcurve" smooth="yes"/>
      <point x="338.253731343" y="-25.0"/>
      <point x="125.0" y="242.880597015"/>
      <point x="125" y="469" type="qcurve" smooth="yes"/>
      <point x="125" y="475" type="line" smooth="yes"/>
      <point x="125.0" y="543.656716418"/>
      <point x="139.343283582" y="682.149253731"/>
      <point x="158" y="762" type="qcurve" smooth="yes"/>
      <point x="223.671641791" y="1056.7761194"/>
      <point x="571.268656716" y="1499.0"/>
    </contour>
  </outline>
</glyph>
<glyph name="uni2117" format="1">
  <advance width="1710.08"/>
  <unicode hex="2117"/>
  <outline>
    <contour>
      <point x="907" y="1499" type="qcurve" smooth="yes"/>
      <point x="1229.3880597" y="1499.0"/>
      <point x="1669.0" y="1059.3880597"/>
      <point x="1669" y="737" type="qcurve" smooth="yes"/>
      <point x="1669.0" y="416.104477612"/>
      <point x="1227.89552239" y="-25.0"/>
      <point x="907" y="-25" type="qcurve" smooth="yes"/>
      <point x="584.611940299" y="-25.0"/>
      <point x="145.0" y="414.611940299"/>
      <point x="145" y="737" type="qcurve" smooth="yes"/>
      <point x="145.0" y="1057.89552239"/>
      <point x="584.611940299" y="1499.0"/>
    </contour>
    <contour>
      <point x="907" y="41" type="qcurve" smooth="yes"/>
      <point x="1202.52238806" y="41.0"/>
      <point x="1595.0" y="442.223880597"/>
      <point x="1595" y="737" type="qcurve" smooth="yes"/>
      <point x="1595.0" y="1032.52238806"/>
      <point x="1202.52238806" y="1434.0"/>
      <point x="907" y="1434" type="qcurve" smooth="yes"/>
      <point x="612.223880597" y="1434.0"/>
      <point x="219.0" y="1032.52238806"/>
      <point x="219" y="737" type="qcurve" smooth="yes"/>
      <point x="219.0" y="442.223880597"/>
      <point x="612.223880597" y="41.0"/>
    </contour>
    <contour>
      <point x="946" y="1157" type="line" smooth="yes"/>
      <point x="1078.8358209" y="1157.0"/>
      <point x="1229.0" y="1027.92537313"/>
      <point x="1229" y="913" type="qcurve" smooth="yes"/>
      <point x="1229.0" y="797.328358209"/>
      <point x="1076.80597015" y="666.0"/>
      <point x="938" y="666" type="qcurve" smooth="yes"/>
      <point x="803" y="666" type="line"/>
      <point x="803" y="326" type="line"/>
      <point x="688" y="326" type="line"/>
      <point x="688" y="1157" type="line"/>
    </contour>
    <contour>
      <point x="942" y="756" type="line" smooth="yes"/>
      <point x="1026.32835821" y="756.0"/>
      <point x="1116.0" y="834.880597015"/>
      <point x="1116" y="911" type="qcurve" smooth="yes"/>
      <point x="1116.0" y="983.388059701"/>
      <point x="1024.80597015" y="1065.0"/>
      <point x="936" y="1065" type="qcurve" smooth="yes"/>
      <point x="801" y="1065" type="line"/>
      <point x="801" y="756" type="line"/>
    </contour>
  </outline>
</glyph>
<glyph name="trademark" format="1">
  <advance width="1597.44"/>
  <unicode hex="2122"/>
  <outline>
    <contour>
      <point x="1546" y="1475" type="line"/>
      <point x="1692" y="1475" type="line"/>
      <point x="1518" y="778" type="line"/>
      <point x="1434" y="778" type="line"/>
      <point x="1589" y="1393" type="line"/>
      <point x="1583" y="1393" type="line"/>
      <point x="1214" y="778" type="line"/>
      <point x="1114" y="778" type="line"/>
      <point x="1055" y="1393" type="line"/>
      <point x="1049" y="1393" type="line"/>
      <point x="895" y="778" type="line"/>
      <point x="809" y="778" type="line"/>
      <point x="983" y="1475" type="line"/>
      <point x="1128" y="1475" type="line"/>
      <point x="1184" y="874" type="line"/>
      <point x="1190" y="874" type="line"/>
    </contour>
    <contour>
      <point x="307" y="1475" type="line"/>
      <point x="848" y="1475" type="line"/>
      <point x="827" y="1399" type="line"/>
      <point x="604" y="1399" type="line"/>
      <point x="449" y="778" type="line"/>
      <point x="358" y="778" type="line"/>
      <point x="512" y="1399" type="line"/>
      <point x="287" y="1399" type="line"/>
    </contour>
  </outline>
</glyph>
<glyph name="apple" format="1">
  <advance width="1024.0"/>
  <unicode hex="F8FF"/>
  <outline>
    <contour>
      <point x="1083" y="1221" type="line"/>
      <point x="1096" y="1085" type="line"/>
      <point x="692" y="1036" type="line"/>
      <point x="887" y="715" type="line"/>
      <point x="887" y="709" type="line"/>
      <point x="541" y="430" type="line"/>
      <point x="899" y="315" type="line"/>
      <point x="819" y="184" type="line"/>
      <point x="504" y="383" type="line"/>
      <point x="449" y="0" type="line"/>
      <point x="301" y="0" type="line"/>
      <point x="446" y="385" type="line"/>
      <point x="43" y="254" type="line"/>
      <point x="33" y="389" type="line"/>
      <point x="434" y="438" type="line"/>
      <point x="242" y="760" type="line"/>
      <point x="242" y="766" type="line"/>
      <point x="588" y="1044" type="line"/>
      <point x="229" y="1159" type="line"/>
      <point x="307" y="1290" type="line"/>
      <point x="625" y="1092" type="line"/>
      <point x="680" y="1475" type="line"/>
      <point x="825" y="1475" type="line"/>
      <point x="680" y="1090" type="line"/>
    </contour>
    <contour>
      <point x="494" y="459" type="line"/>
      <point x="745" y="721" type="line"/>
      <point x="635" y="1016" type="line"/>
      <point x="383" y="754" type="line"/>
    </contour>
  </outline>
</glyph>
<glyph name="I.salt" format="1">
  <advance width="526.336"/>
  <outline>
    <contour>
      <point x="424" y="1475" type="line"/>
      <point x="571" y="1475" type="line"/>
      <point x="205" y="0" type="line"/>
      <point x="57" y="0" type="line"/>
    </contour>
  </outline>
</glyph>
<glyph name="a.salt" format="1">
  <advance width="989.184"/>
  <outline>
    <contour>
      <point x="614" y="1071" type="qcurve" smooth="yes"/>
      <point x="758.029850746" y="1071.0"/>
      <point x="897.0" y="960.23880597"/>
      <point x="897" y="858" type="qcurve" smooth="yes"/>
      <point x="897.0" y="830.388059701"/>
      <point x="889.955223881" y="767.567164179"/>
      <point x="881" y="731" type="qcurve" smooth="yes"/>
      <point x="750" y="213" type="line" smooth="yes"/>
      <point x="746.268656716" y="199.567164179"/>
      <point x="741.0" y="163.940298507"/>
      <point x="741" y="152" type="qcurve" smooth="yes"/>
      <point x="741.0" y="114.686567164"/>
      <point x="782.970149254" y="65.7164179104"/>
      <point x="827" y="59" type="qcurve"/>
      <point x="809" y="-10" type="line"/>
      <point x="706.76119403" y="-4.02985074627"/>
      <point x="610.029850746" y="96.3880597015"/>
      <point x="616" y="174" type="qcurve"/>
      <point x="602" y="174" type="line"/>
      <point x="496.776119403" y="74.7462686567"/>
      <point x="338.298507463" y="-16.0"/>
      <point x="248" y="-16" type="qcurve" smooth="yes"/>
      <point x="150.23880597" y="-16.0"/>
      <point x="18.0" y="100.044776119"/>
      <point x="18" y="209" type="qcurve" smooth="yes"/>
      <point x="18.0" y="391.089552239"/>
      <point x="360.552238806" y="626.492537313"/>
      <point x="721" y="625" type="qcurve"/>
      <point x="750" y="733" type="line" smooth="yes"/>
      <point x="757.462686567" y="760.611940299"/>
      <point x="764.0" y="807.597014925"/>
      <point x="764" y="827" type="qcurve" smooth="yes"/>
      <point x="764.0" y="900.880597015"/>
      <point x="675.28358209" y="969.0"/>
      <point x="582" y="969" type="qcurve" smooth="yes"/>
      <point x="505.134328358" y="969.0"/>
      <point x="374.0" y="934.044776119"/>
      <point x="274" y="893" type="qcurve"/>
      <point x="254" y="985" type="line"/>
      <point x="350.268656716" y="1026.04477612"/>
      <point x="517.731343284" y="1071.0"/>
    </contour>
    <contour>
      <point x="635" y="272" type="qcurve"/>
      <point x="707" y="553" type="line"/>
      <point x="395.059701493" y="555.985074627"/>
      <point x="154.0" y="354.880597015"/>
      <point x="154" y="231" type="qcurve" smooth="yes"/>
      <point x="154.0" y="157.865671642"/>
      <point x="242.850746269" y="76.0"/>
      <point x="313" y="76" type="qcurve" smooth="yes"/>
      <point x="382.402985075" y="76.0"/>
      <point x="538.731343284" y="171.253731343"/>
    </contour>
  </outline>
</glyph>
<glyph name="bullet" format="1">
  <advance width="739.328"/>
  <outline>
    <contour>
      <point x="428" y="1016" type="qcurve" smooth="yes"/>
      <point x="533.223880597" y="1016.0"/>
      <point x="680.0" y="869.223880597"/>
      <point x="680" y="764" type="qcurve" smooth="yes"/>
      <point x="680.0" y="658.776119403"/>
      <point x="533.223880597" y="512.0"/>
      <point x="428" y="512" type="qcurve" smooth="yes"/>
      <point x="322.776119403" y="512.0"/>
      <point x="176.0" y="658.776119403"/>
      <point x="176" y="764" type="qcurve" smooth="yes"/>
      <point x="176.0" y="869.223880597"/>
      <point x="322.776119403" y="1016.0"/>
    </contour>
  </outline>
</glyph>
<glyph name="endash.uc" format="1">
  <advance width="1228.8"/>
  <outline>
    <contour>
      <point x="1186" y="793" type="line"/>
      <point x="1186" y="662" type="line"/>
      <point x="143" y="662" type="line"/>
      <point x="143" y="793" type="line"/>
    </contour>
  </outline>
</glyph>
<glyph name="registered" format="1">
  <advance width="1079.296"/>
  <outline>
    <contour>
      <point x="731" y="1006" type="qcurve"/>
      <point x="879" y="782" type="line"/>
      <point x="786" y="782" type="line"/>
      <point x="643" y="997" type="line"/>
      <point x="588" y="997" type="line"/>
      <point x="588" y="782" type="line"/>
      <point x="506" y="782" type="line"/>
      <point x="506" y="1294" type="line"/>
      <point x="676" y="1294" type="line" smooth="yes"/>
      <point x="756.597014925" y="1294.0"/>
      <point x="852.0" y="1218.64179104"/>
      <point x="852" y="1147" type="qcurve" smooth="yes"/>
      <point x="852.0" y="1088.79104478"/>
      <point x="784.731343284" y="1016.44776119"/>
    </contour>
    <contour>
      <point x="664" y="1489" type="qcurve" smooth="yes"/>
      <point x="858.029850746" y="1489.0"/>
      <point x="1120.0" y="1224.53731343"/>
      <point x="1120" y="1032" type="qcurve" smooth="yes"/>
      <point x="1120.0" y="839.462686567"/>
      <point x="856.537313433" y="575.0"/>
      <point x="664" y="575" type="qcurve" smooth="yes"/>
      <point x="471.462686567" y="575.0"/>
      <point x="207.0" y="837.970149254"/>
      <point x="207" y="1032" type="qcurve" smooth="yes"/>
      <point x="207.0" y="1224.53731343"/>
      <point x="471.462686567" y="1489.0"/>
    </contour>
    <contour>
      <point x="664" y="623" type="qcurve" smooth="yes"/>
      <point x="837.880597015" y="623.0"/>
      <point x="1067.0" y="859.611940299"/>
      <point x="1067" y="1032" type="qcurve" smooth="yes"/>
      <point x="1067.0" y="1205.13432836"/>
      <point x="836.388059701" y="1442.0"/>
      <point x="664" y="1442" type="qcurve" smooth="yes"/>
      <point x="490.865671642" y="1442.0"/>
      <point x="260.0" y="1205.13432836"/>
      <point x="260" y="1032" type="qcurve" smooth="yes"/>
      <point x="260.0" y="859.611940299"/>
      <point x="490.865671642" y="623.0"/>
    </contour>
    <contour>
      <point x="672" y="1063" type="line" smooth="yes"/>
      <point x="717.52238806" y="1063.0"/>
      <point x="770.0" y="1104.46268657"/>
      <point x="770" y="1147" type="qcurve" smooth="yes"/>
      <point x="770.0" y="1186.55223881"/>
      <point x="718.507462687" y="1229.0"/>
      <point x="670" y="1229" type="qcurve" smooth="yes"/>
      <point x="586" y="1229" type="line"/>
      <point x="586" y="1063" type="line"/>
    </contour>
  </outline>
</glyph>
